<svg width="20" height="20" viewBox="0 0 20 20" fill="none" xmlns="http://www.w3.org/2000/svg">
<path d="M10.9792 14.4766C10.7986 14.296 10.7119 14.0702 10.7192 13.7991C10.7258 13.5285 10.8194 13.303 11 13.1224L13.1667 10.9557H4.14583C3.88194 10.9557 3.65611 10.8618 3.46833 10.6741C3.28111 10.4868 3.1875 10.2613 3.1875 9.9974C3.1875 9.73351 3.28111 9.50795 3.46833 9.32073C3.65611 9.13295 3.88194 9.03906 4.14583 9.03906H13.1667L10.9792 6.85156C10.7986 6.67101 10.7083 6.44878 10.7083 6.1849C10.7083 5.92101 10.7986 5.69878 10.9792 5.51823C11.1597 5.32378 11.3819 5.22656 11.6458 5.22656C11.9097 5.22656 12.1389 5.32378 12.3333 5.51823L16.1458 9.33073C16.2292 9.42795 16.2917 9.53212 16.3333 9.64323C16.375 9.75434 16.3958 9.8724 16.3958 9.9974C16.3958 10.1224 16.375 10.2405 16.3333 10.3516C16.2917 10.4627 16.2292 10.5668 16.1458 10.6641L12.3125 14.4974C12.1319 14.678 11.9097 14.7682 11.6458 14.7682C11.3819 14.7682 11.1597 14.671 10.9792 14.4766Z" fill="#1DA1F2"/>
</svg>
