<svg width="26" height="25" viewBox="0 0 26 25" fill="none" xmlns="http://www.w3.org/2000/svg">
<path d="M7.67753 21.6C7.08903 21.6 6.58542 21.4043 6.16669 21.013C5.74725 20.621 5.53753 20.15 5.53753 19.6V6.60001C5.23436 6.60001 4.98006 6.50434 4.77462 6.31301C4.56989 6.12101 4.46753 5.88334 4.46753 5.60001C4.46753 5.31667 4.56989 5.07901 4.77462 4.88701C4.98006 4.69567 5.23436 4.60001 5.53753 4.60001H9.81753C9.81753 4.31667 9.92025 4.07901 10.1257 3.88701C10.3304 3.69567 10.5844 3.60001 10.8875 3.60001H15.1675C15.4707 3.60001 15.725 3.69567 15.9304 3.88701C16.1352 4.07901 16.2375 4.31667 16.2375 4.60001H20.5175C20.8207 4.60001 21.0746 4.69567 21.2794 4.88701C21.4848 5.07901 21.5875 5.31667 21.5875 5.60001C21.5875 5.88334 21.4848 6.12101 21.2794 6.31301C21.0746 6.50434 20.8207 6.60001 20.5175 6.60001V19.6C20.5175 20.15 20.3082 20.621 19.8894 21.013C19.47 21.4043 18.966 21.6 18.3775 21.6H7.67753ZM7.67753 6.60001V19.6H18.3775V6.60001H7.67753ZM9.81753 16.6C9.81753 16.8833 9.92025 17.1207 10.1257 17.312C10.3304 17.504 10.5844 17.6 10.8875 17.6C11.1907 17.6 11.445 17.504 11.6504 17.312C11.8552 17.1207 11.9575 16.8833 11.9575 16.6V9.60001C11.9575 9.31667 11.8552 9.07901 11.6504 8.88701C11.445 8.69567 11.1907 8.60001 10.8875 8.60001C10.5844 8.60001 10.3304 8.69567 10.1257 8.88701C9.92025 9.07901 9.81753 9.31667 9.81753 9.60001V16.6ZM14.0975 16.6C14.0975 16.8833 14.2002 17.1207 14.4057 17.312C14.6104 17.504 14.8644 17.6 15.1675 17.6C15.4707 17.6 15.725 17.504 15.9304 17.312C16.1352 17.1207 16.2375 16.8833 16.2375 16.6V9.60001C16.2375 9.31667 16.1352 9.07901 15.9304 8.88701C15.725 8.69567 15.4707 8.60001 15.1675 8.60001C14.8644 8.60001 14.6104 8.69567 14.4057 8.88701C14.2002 9.07901 14.0975 9.31667 14.0975 9.60001V16.6ZM7.67753 6.60001V19.6V6.60001Z" fill="white"/>
</svg>
