<svg width="24" height="24" viewBox="0 0 24 24" fill="none" xmlns="http://www.w3.org/2000/svg">
<path d="M14.6923 18C14.05 18 13.5048 17.776 13.0567 17.3279C12.6087 16.8798 12.3846 16.3346 12.3846 15.6923C12.3846 15.05 12.6087 14.5048 13.0567 14.0567C13.5048 13.6087 14.05 13.3846 14.6923 13.3846C15.3346 13.3846 15.8798 13.6087 16.3279 14.0567C16.7759 14.5048 17 15.05 17 15.6923C17 16.3346 16.7759 16.8798 16.3279 17.3279C15.8798 17.776 15.3346 18 14.6923 18ZM5.3077 21.5C4.80257 21.5 4.375 21.325 4.025 20.975C3.675 20.625 3.5 20.1974 3.5 19.6923V6.30772C3.5 5.80258 3.675 5.37502 4.025 5.02502C4.375 4.67502 4.80257 4.50002 5.3077 4.50002H6.69233V3.15384C6.69233 2.93463 6.76573 2.75162 6.91253 2.60482C7.05931 2.45804 7.24232 2.38464 7.46155 2.38464C7.68077 2.38464 7.86378 2.45804 8.01058 2.60482C8.15736 2.75162 8.23075 2.93463 8.23075 3.15384V4.50002H15.8077V3.13462C15.8077 2.9218 15.8794 2.7436 16.023 2.60002C16.1666 2.45644 16.3448 2.38464 16.5576 2.38464C16.7704 2.38464 16.9486 2.45644 17.0922 2.60002C17.2358 2.7436 17.3076 2.9218 17.3076 3.13462V4.50002H18.6923C19.1974 4.50002 19.625 4.67502 19.975 5.02502C20.325 5.37502 20.5 5.80258 20.5 6.30772V19.6923C20.5 20.1974 20.325 20.625 19.975 20.975C19.625 21.325 19.1974 21.5 18.6923 21.5H5.3077ZM5.3077 20H18.6923C18.782 20 18.8557 19.9711 18.9134 19.9134C18.9711 19.8557 19 19.782 19 19.6923V10.3077H4.99997V19.6923C4.99997 19.782 5.02883 19.8557 5.08653 19.9134C5.14423 19.9711 5.21795 20 5.3077 20ZM4.99997 8.80774H19V6.30772C19 6.21797 18.9711 6.14424 18.9134 6.08654C18.8557 6.02884 18.782 5.99999 18.6923 5.99999H5.3077C5.21795 5.99999 5.14423 6.02884 5.08653 6.08654C5.02883 6.14424 4.99997 6.21797 4.99997 6.30772V8.80774Z" fill="#1DA1F2"/>
</svg>
