<svg width="262" height="219" viewBox="0 0 262 219" fill="none" xmlns="http://www.w3.org/2000/svg">
<path d="M5.1 121.27C5.1 121.27 19.1571 101.37 0 85.9413C0 85.9413 24.6143 92.4556 36.5857 62.3984C36.5857 62.3984 48.0857 77.8841 63.3714 64.9127C63.3714 64.9127 64.6 80.1984 85.6143 80.5127C85.6143 80.5127 76.2 100.284 101.671 111.013C101.671 111.013 78.9714 114.798 81.9857 142.356C81.9857 142.356 55.9714 131.541 40.5286 152.156C40.5286 152.156 34.2714 140.498 18.9143 142.813C18.9 142.813 21.4286 126.913 5.1 121.27Z" fill="#E9E9E9"/>
<path d="M144.772 154.732C144.772 154.732 161.8 130.618 138.586 111.918C138.586 111.918 168.414 119.818 182.929 83.375C182.929 83.375 196.857 102.132 215.386 86.4179C215.386 86.4179 216.886 104.946 242.329 105.318C242.329 105.318 230.914 129.275 261.786 142.275C261.786 142.275 234.272 146.861 237.929 180.261C237.929 180.261 206.4 167.161 187.686 192.146C187.686 192.146 180.1 178.018 161.486 180.818C161.486 180.846 164.557 161.575 144.772 154.732Z" fill="#E9E9E9"/>
<path d="M124.599 39.7286C124.599 39.7286 134.085 26.3 121.156 15.8857C121.156 15.8857 137.771 20.2857 145.842 0C145.842 0 153.599 10.4429 163.913 1.68571C163.913 1.68571 164.742 12 178.913 12.2143C178.913 12.2143 172.556 25.5571 189.756 32.8C189.756 32.8 174.442 35.3571 176.471 53.9571C176.471 53.9571 158.913 46.6571 148.485 60.5714C148.485 60.5714 144.271 52.7 133.899 54.2714C133.913 54.2571 135.613 43.5286 124.599 39.7286Z" fill="#E9E9E9"/>
<path d="M92.7272 33.5554C93.2987 33.3982 93.7415 33.0696 94.0415 32.5411C94.3415 32.0125 94.3987 31.4554 94.2415 30.8554C94.0844 30.2554 93.7415 29.7982 93.2272 29.4982C92.7129 29.1839 92.1701 29.1125 91.5987 29.2696C90.9987 29.4268 90.5415 29.7696 90.2415 30.2982C89.9415 30.8268 89.8558 31.3839 90.0129 31.9839C90.1701 32.5839 90.5129 33.0411 91.0415 33.3411C91.5558 33.6411 92.1272 33.7125 92.7272 33.5554ZM84.4844 9.7125L89.4272 26.9268L92.0558 26.2268L87.8844 8.8125L84.4844 9.7125Z" fill="#E9E9E9"/>
<path d="M31.8277 169.801C32.0991 169.201 32.1277 168.587 31.8848 167.973C31.642 167.358 31.2134 166.901 30.5991 166.601C29.9705 166.315 29.3562 166.273 28.7277 166.501C28.0991 166.715 27.642 167.13 27.3705 167.73C27.0848 168.358 27.0563 168.987 27.2848 169.615C27.5134 170.244 27.942 170.715 28.5705 171.001C29.1991 171.287 29.8277 171.315 30.4562 171.087C31.0705 170.858 31.5277 170.43 31.8277 169.801ZM5.65625 159.958L23.8134 167.915L25.0848 165.187L7.28482 156.43L5.65625 159.958Z" fill="#E9E9E9"/>
<path d="M193.514 68.8094C194.128 69.2951 194.814 69.4808 195.585 69.3808C196.357 69.2808 196.999 68.9094 197.485 68.2808C197.985 67.6522 198.199 66.9379 198.114 66.1665C198.028 65.3951 197.685 64.7665 197.085 64.2808C196.457 63.7808 195.742 63.5808 194.957 63.6665C194.171 63.7522 193.528 64.1237 193.028 64.7522C192.528 65.3808 192.328 66.0951 192.414 66.8808C192.514 67.6665 192.871 68.3094 193.514 68.8094ZM211.828 41.6094L197.814 60.1808L200.585 62.3665L215.399 44.4237L211.828 41.6094Z" fill="#E9E9E9"/>
<path d="M50.0185 180.657C50.0185 180.657 47.9757 190.671 47.1328 202H73.89L74.99 189.871C74.99 189.857 69.5042 180.571 50.0185 180.657Z" fill="#FFC89F"/>
<path d="M189.561 162.392C189.404 162.549 179.376 172.506 178.79 201.992H74.8471C74.8471 201.992 75.6042 195.664 72.6185 191.821C72.6185 191.821 57.9757 190.278 49.6328 180.192C49.6328 180.192 48.4042 152.164 63.7328 136.792C65.4471 135.064 67.7614 134.064 70.2042 134.006C70.2042 134.006 74.2614 132.006 80.3328 129.506C86.4042 127.021 94.4757 124.035 102.504 122.092C102.504 122.092 105.561 113.921 112.319 121.478C126.761 137.664 144.69 109.635 151.604 120.335C154.661 123.364 159.861 116.249 162.419 121.035C162.419 121.035 168.019 120.392 169.547 121.992C169.547 121.992 176.39 120.792 180.947 123.306C180.947 123.306 193.304 122.278 202.304 126.006C202.319 126.035 220.819 164.064 189.561 162.392Z" fill="#1DA1F2"/>
<path d="M145.572 119.773V102.688H110.572V118.945C110.572 120.502 109.3 121.745 107.743 121.716L107.272 121.702C107.272 121.702 103.157 132.645 108.6 144.887C108.6 144.887 117.643 150.33 122.772 160.673C122.772 160.673 132.029 149.188 138.315 146.345C138.315 146.345 147.915 137.73 148.3 122.545C146.786 122.516 145.572 121.288 145.572 119.773Z" fill="#FFC89F"/>
<path d="M128.072 127.162C115.201 127.162 104.758 116.72 104.758 103.848V75.3768C104.758 62.5054 115.201 52.0625 128.072 52.0625C140.944 52.0625 151.386 62.5054 151.386 75.3768V103.848C151.386 116.734 140.958 127.162 128.072 127.162Z" fill="#FFC89F"/>
<path d="M128.073 127.167C126.059 127.338 124.016 127.167 122.03 126.71C121.53 126.596 121.044 126.453 120.559 126.31C120.073 126.167 119.601 125.967 119.116 125.81C118.873 125.738 118.644 125.61 118.416 125.51L117.716 125.196C117.259 124.981 116.816 124.724 116.359 124.496C115.916 124.238 115.487 123.953 115.059 123.681C114.63 123.396 114.23 123.081 113.816 122.781C113.416 122.467 113.03 122.124 112.644 121.796C112.259 121.453 111.901 121.081 111.544 120.738C110.13 119.267 108.93 117.596 108.059 115.781C109.244 117.41 110.544 118.924 112.001 120.267C112.373 120.596 112.744 120.924 113.116 121.238C113.501 121.538 113.887 121.853 114.287 122.153C114.701 122.424 115.087 122.724 115.501 122.996C115.93 123.253 116.33 123.524 116.773 123.767C117.201 123.996 117.63 124.253 118.073 124.467C118.516 124.667 118.959 124.896 119.416 125.081C119.873 125.267 120.33 125.467 120.787 125.624L121.487 125.853C121.716 125.924 121.959 126.024 122.187 126.081C124.101 126.653 126.073 126.996 128.073 127.167Z" fill="#FA996E"/>
<path d="M148.901 114.328C148.587 115.357 148.116 116.328 147.558 117.242C147.416 117.471 147.273 117.7 147.13 117.914L146.658 118.571C146.501 118.785 146.33 118.985 146.158 119.2L145.63 119.814C144.901 120.614 144.101 121.342 143.244 121.971C142.387 122.614 141.458 123.171 140.473 123.585C141.273 122.871 142.058 122.185 142.83 121.471C143.587 120.757 144.316 120.014 145.016 119.242L145.544 118.671C145.716 118.471 145.873 118.271 146.044 118.071L146.544 117.471C146.701 117.257 146.873 117.057 147.03 116.857C147.658 116.057 148.273 115.2 148.901 114.328Z" fill="#FA996E"/>
<path d="M103.96 102.929H105.174C107.574 102.929 109.517 100.986 109.517 98.5857V90.8429C109.517 88.4429 107.574 86.5 105.174 86.5H103.96C101.56 86.5 99.6172 88.4429 99.6172 90.8429V98.5857C99.6172 100.986 101.56 102.929 103.96 102.929Z" fill="#FFC89F"/>
<path d="M150.991 102.929H152.206C154.606 102.929 156.548 100.986 156.548 98.5857V90.8429C156.548 88.4429 154.606 86.5 152.206 86.5H150.991C148.591 86.5 146.648 88.4429 146.648 90.8429V98.5857C146.663 100.986 148.606 102.929 150.991 102.929Z" fill="#FFC89F"/>
<path d="M103.618 91.0955C103.146 91.2527 102.832 91.6098 102.646 91.9956C102.446 92.3813 102.332 92.8241 102.261 93.267C102.146 94.1527 102.204 95.067 102.446 95.9098C102.575 96.3241 102.761 96.7241 103.004 97.0384C103.118 97.1955 103.289 97.3527 103.389 97.4098C103.418 97.4241 103.418 97.4241 103.418 97.4241L103.404 97.4384C103.418 97.4527 103.461 97.3955 103.504 97.3098C103.589 97.1527 103.632 96.9241 103.675 96.7098C103.718 96.4813 103.746 96.2527 103.775 96.0241C103.832 95.5527 103.846 95.0813 103.889 94.5955C104.032 95.067 104.118 95.5384 104.175 96.0241C104.204 96.267 104.218 96.5098 104.218 96.767C104.218 97.0241 104.189 97.2813 104.104 97.567C104.046 97.7098 103.989 97.867 103.789 98.0241C103.689 98.0955 103.561 98.1384 103.446 98.1527C103.318 98.167 103.218 98.1384 103.132 98.1098C102.789 97.967 102.604 97.7813 102.418 97.5813C102.046 97.1813 101.804 96.6813 101.646 96.1955C101.346 95.1955 101.332 94.1527 101.604 93.167C101.746 92.6813 101.961 92.1955 102.289 91.7955C102.461 91.5955 102.661 91.4241 102.889 91.2955C103.118 91.1527 103.361 91.0813 103.618 91.0955Z" fill="#FA996E"/>
<path d="M104.461 93.1558C104.332 92.8558 104.275 92.5701 104.232 92.2987C104.19 92.0272 104.147 91.7701 104.118 91.5415C104.09 91.2987 104.047 91.0844 103.99 90.9273C103.961 90.8415 103.918 90.7701 103.832 90.6987C103.747 90.6272 103.618 90.5701 103.461 90.513C103.575 90.3987 103.732 90.313 103.918 90.2987C104.104 90.2844 104.318 90.3558 104.475 90.4844C104.79 90.7558 104.904 91.113 104.947 91.4273C104.99 91.7415 104.961 92.0558 104.89 92.3415C104.804 92.6272 104.675 92.8987 104.461 93.1558Z" fill="#FA996E"/>
<path d="M152.733 91.0959C152.976 91.0816 153.233 91.1388 153.461 91.2673C153.69 91.3816 153.89 91.5673 154.061 91.7673C154.39 92.1673 154.604 92.653 154.747 93.1388C155.019 94.1245 155.004 95.1673 154.704 96.1673C154.547 96.6673 154.304 97.153 153.933 97.553C153.733 97.753 153.561 97.9388 153.219 98.0816C153.133 98.1102 153.019 98.1388 152.904 98.1245C152.776 98.1245 152.647 98.0673 152.561 97.9959C152.376 97.853 152.304 97.6816 152.247 97.5388C152.147 97.253 152.133 96.9959 152.133 96.7387C152.133 96.4816 152.147 96.2388 152.176 95.9959C152.233 95.5102 152.319 95.0388 152.461 94.5673C152.49 95.053 152.519 95.5245 152.576 95.9959C152.604 96.2245 152.633 96.4673 152.676 96.6816C152.719 96.8959 152.776 97.1245 152.847 97.2816C152.89 97.353 152.947 97.4102 152.947 97.4102L152.933 97.3959C152.933 97.3959 152.947 97.3959 152.961 97.3816C153.061 97.3387 153.233 97.1673 153.347 97.0102C153.604 96.6959 153.776 96.2959 153.904 95.8816C154.147 95.0387 154.204 94.1245 154.09 93.2387C154.019 92.7959 153.919 92.353 153.704 91.9673C153.519 91.6102 153.204 91.2673 152.733 91.0959Z" fill="#FA996E"/>
<path d="M151.889 93.1558C151.674 92.913 151.546 92.6272 151.46 92.3415C151.389 92.0558 151.36 91.7415 151.403 91.4273C151.446 91.113 151.56 90.7558 151.874 90.4844C152.032 90.3558 152.246 90.2844 152.432 90.2987C152.617 90.3272 152.774 90.3987 152.889 90.513C152.732 90.5701 152.603 90.6272 152.517 90.6987C152.432 90.7701 152.389 90.8415 152.36 90.9273C152.303 91.0844 152.26 91.2987 152.232 91.5415C152.203 91.7844 152.16 92.0415 152.117 92.2987C152.074 92.5701 152.003 92.8415 151.889 93.1558Z" fill="#FA996E"/>
<path d="M140.577 90.2156C141.736 90.2156 142.677 89.2754 142.677 88.1156C142.677 86.9558 141.736 86.0156 140.577 86.0156C139.417 86.0156 138.477 86.9558 138.477 88.1156C138.477 89.2754 139.417 90.2156 140.577 90.2156Z" fill="#1B1B2F"/>
<path d="M144.903 84.7846C144.232 84.3703 143.532 84.0417 142.818 83.8131C142.089 83.5989 141.346 83.4703 140.603 83.4989C140.418 83.4846 140.232 83.5274 140.046 83.5274L139.76 83.556C139.66 83.5703 139.575 83.5989 139.489 83.6131L138.932 83.7131C138.746 83.7703 138.575 83.8274 138.389 83.8703L138.118 83.956L137.846 84.0703L137.303 84.2846C136.946 84.4417 136.618 84.6274 136.246 84.7846C136.546 84.5274 136.846 84.2703 137.175 84.0417L137.689 83.7417L137.946 83.5989L138.218 83.4846C138.403 83.4131 138.589 83.3274 138.775 83.256C138.975 83.1989 139.16 83.156 139.36 83.0989C139.46 83.0703 139.56 83.0417 139.66 83.0274L139.96 82.9989C140.16 82.9846 140.36 82.9417 140.575 82.956C141.389 82.9417 142.203 83.1131 142.946 83.4274C143.703 83.7274 144.375 84.1846 144.903 84.7846Z" fill="#1B1B2F"/>
<path d="M118.545 90.2156C119.705 90.2156 120.645 89.2754 120.645 88.1156C120.645 86.9558 119.705 86.0156 118.545 86.0156C117.386 86.0156 116.445 86.9558 116.445 88.1156C116.445 89.2754 117.386 90.2156 118.545 90.2156Z" fill="#1B1B2F"/>
<path d="M122.876 84.7846C122.204 84.3703 121.504 84.0417 120.79 83.8131C120.062 83.5989 119.319 83.4703 118.576 83.4989C118.39 83.4846 118.204 83.5274 118.019 83.5274L117.733 83.556C117.633 83.5703 117.547 83.5989 117.462 83.6131L116.904 83.7131C116.719 83.7703 116.547 83.8274 116.362 83.8703L116.09 83.956L115.819 84.0703L115.276 84.2846C114.919 84.4417 114.59 84.6274 114.219 84.7846C114.519 84.5274 114.819 84.2703 115.147 84.0417L115.662 83.7417L115.919 83.5989L116.19 83.4846C116.376 83.4131 116.562 83.3274 116.747 83.256C116.947 83.1989 117.133 83.156 117.333 83.0989C117.433 83.0703 117.533 83.0417 117.633 83.0274L117.933 82.9989C118.133 82.9846 118.333 82.9417 118.547 82.956C119.362 82.9417 120.176 83.1131 120.919 83.4274C121.676 83.7274 122.362 84.1846 122.876 84.7846Z" fill="#1B1B2F"/>
<path d="M132.063 92.9062C132.305 93.792 132.491 94.6777 132.663 95.5777C132.834 96.4634 132.977 97.3634 133.105 98.2634C133.163 98.7062 133.248 99.192 133.191 99.6777C133.148 100.163 133.02 100.635 132.791 101.063C132.577 101.492 132.234 101.892 131.805 102.121C131.391 102.321 130.991 102.521 130.562 102.692C130.92 102.406 131.291 102.149 131.663 101.878C132.005 101.635 132.234 101.263 132.405 100.878C132.563 100.478 132.648 100.063 132.663 99.6348C132.691 99.2062 132.62 98.792 132.548 98.3348C132.434 97.4348 132.305 96.5348 132.234 95.6348C132.134 94.7348 132.077 93.8205 132.063 92.9062Z" fill="#1B1B2F"/>
<path d="M144.906 80.2221C143.934 80.1649 143.206 80.1078 142.506 80.0792C141.82 80.0506 141.22 80.0363 140.606 80.0506C140.534 80.0506 140.449 80.0506 140.377 80.0506L140.149 80.0649C140.077 80.0649 139.992 80.0649 139.92 80.0649C139.849 80.0649 139.763 80.0792 139.692 80.0792C139.534 80.0935 139.377 80.0935 139.206 80.0935C139.049 80.1078 138.877 80.122 138.692 80.1363C138.606 80.1363 138.52 80.1363 138.42 80.1363C138.334 80.1506 138.249 80.1649 138.149 80.1649C137.963 80.1792 137.777 80.1935 137.563 80.1935C137.163 80.222 136.749 80.2506 136.234 80.2078C136.306 79.9792 136.406 79.7649 136.52 79.5649C136.634 79.3649 136.749 79.1649 136.892 78.9792C137.034 78.8078 137.192 78.6506 137.363 78.4935C137.449 78.4078 137.534 78.3363 137.62 78.2649C137.706 78.1935 137.806 78.1363 137.906 78.0649C138.092 77.9363 138.306 77.822 138.506 77.7078C138.72 77.622 138.934 77.5363 139.163 77.4649C139.277 77.422 139.392 77.3935 139.506 77.3649L139.863 77.3078C140.106 77.2792 140.334 77.2363 140.577 77.2363C141.534 77.2078 142.492 77.4935 143.277 77.9935C143.377 78.0506 143.463 78.1363 143.563 78.1935C143.649 78.2649 143.749 78.3363 143.834 78.4078C144.006 78.5649 144.163 78.7363 144.306 78.922C144.563 79.322 144.806 79.7363 144.906 80.2221Z" fill="#1B1B2F"/>
<path d="M122.875 80.2221C121.903 80.1649 121.175 80.1078 120.475 80.0792C119.789 80.0506 119.189 80.0363 118.575 80.0506C118.503 80.0506 118.417 80.0506 118.346 80.0506L118.117 80.0649C118.046 80.0649 117.96 80.0649 117.889 80.0649C117.817 80.0649 117.732 80.0792 117.66 80.0792C117.503 80.0935 117.346 80.0935 117.175 80.0935C117.017 80.1078 116.846 80.122 116.66 80.1363C116.575 80.1363 116.489 80.1363 116.389 80.1363C116.303 80.1506 116.217 80.1649 116.117 80.1649C115.932 80.1792 115.746 80.1935 115.532 80.1935C115.132 80.222 114.717 80.2506 114.203 80.2078C114.275 79.9792 114.375 79.7649 114.489 79.5649C114.603 79.3649 114.717 79.1649 114.86 78.9792C115.003 78.8078 115.16 78.6506 115.332 78.4935C115.417 78.4078 115.503 78.3363 115.589 78.2649C115.675 78.1935 115.775 78.1363 115.875 78.0649C116.06 77.9363 116.275 77.822 116.475 77.7078C116.689 77.622 116.903 77.5363 117.132 77.4649C117.246 77.422 117.36 77.3935 117.475 77.3649L117.832 77.3078C118.075 77.2792 118.303 77.2363 118.546 77.2363C119.503 77.2078 120.46 77.4935 121.246 77.9935C121.346 78.0506 121.432 78.1363 121.532 78.1935C121.617 78.2649 121.717 78.3363 121.803 78.4078C121.975 78.5649 122.132 78.7363 122.275 78.922C122.546 79.322 122.775 79.7363 122.875 80.2221Z" fill="#1B1B2F"/>
<path d="M107.659 75.0196L108.588 74.5339L107.659 80.2054L104.859 83.0482C104.859 83.0482 105.331 94.1339 105.174 94.1339C105.017 94.1339 101.288 83.5339 101.288 74.8482C101.288 74.8482 98.5023 77.3768 102.131 81.4196C102.131 81.4196 97.0594 80.6768 99.4594 76.3054C100.317 74.7339 101.102 73.1196 101.702 71.4339C101.731 71.3768 101.745 71.3054 101.774 71.2482L100.431 73.0768C100.431 73.0768 99.4451 71.2482 101.531 68.1054C101.531 68.1054 96.9309 71.5625 96.8737 76.4768C96.8737 76.4768 95.1023 70.7482 100.731 66.7911C100.731 66.7911 100.088 63.3911 103.602 58.1625C103.602 58.1625 101.017 59.9339 100.217 62.5768C100.217 62.5768 98.5594 56.2625 108.617 53.9911C108.617 53.9911 110.359 49.0054 117.002 51.4625C117.002 51.4625 114.745 43.7339 124.074 42.5625C124.074 42.5625 117.102 44.5339 118.388 50.7482C118.388 50.7482 121.374 40.5196 131.188 44.3196C131.188 44.3196 134.245 43.7339 135.817 47.2339C135.817 47.2339 141.074 49.9339 144.288 47.2339C144.288 47.2339 143.074 50.5911 139.445 48.9196C139.445 48.9196 141.574 50.3768 144.288 50.0911C146.988 49.8054 148.131 52.6482 148.131 52.6482C148.131 52.6482 154.802 52.0054 154.588 59.9768C154.588 59.9768 163.631 65.1625 160.974 72.3196C160.974 72.3196 161.345 66.0911 153.959 62.6625C153.959 62.6625 162.274 71.6054 158.559 76.0196C158.559 76.0196 159.317 73.2054 156.345 70.2911L154.659 75.7196C154.659 75.7196 157.631 80.3196 156.174 82.2911C156.174 82.2911 155.588 77.6911 154.431 76.0768C154.431 76.0768 155.231 85.5625 151.159 90.7482L151.359 83.3911L148.802 79.4196L148.145 71.3196C148.145 71.3196 142.431 67.6768 142.631 67.6768C142.831 67.6768 144.274 67.1339 144.274 67.1339C144.274 67.1339 141.645 61.9482 134.159 64.5054L134.359 63.6339L131.474 64.9196L132.059 63.1625L129.631 64.9196L127.202 64.1054L127.731 65.0482L122.931 63.7625L123.517 64.5054C123.517 64.5054 114.588 64.9054 108.802 70.9768L110.317 70.5054L107.659 75.0196Z" fill="#1B1B2F"/>
<path d="M116.802 48.6328C116.774 49.3328 116.874 50.0042 117.016 50.6757C117.074 51.0185 117.188 51.3328 117.274 51.6614C117.374 51.99 117.502 52.3042 117.602 52.6328C118.102 53.9042 118.774 55.1042 119.545 56.2185C120.288 57.3614 121.188 58.4042 122.088 59.4471L123.516 60.9471C124.016 61.4185 124.516 61.9042 125.002 62.4042C124.431 62.0042 123.888 61.5757 123.331 61.1614C122.802 60.7042 122.288 60.2471 121.774 59.7614C121.531 59.5042 121.288 59.2614 121.045 59.0042C120.802 58.7471 120.559 58.5042 120.345 58.2185L119.688 57.4042C119.459 57.1328 119.288 56.8328 119.074 56.5471C118.288 55.39 117.616 54.1328 117.188 52.79C117.088 52.4471 116.988 52.1185 116.916 51.7757C116.859 51.4328 116.774 51.09 116.745 50.7328C116.674 50.0328 116.645 49.3185 116.802 48.6328Z" fill="#1F4068"/>
<path d="M121.419 47.8047C121.205 48.3761 121.091 48.9618 121.019 49.5475C120.934 50.1333 120.934 50.7333 120.962 51.319C121.019 52.4904 121.262 53.6618 121.619 54.7761C121.719 55.0618 121.791 55.3333 121.905 55.619L122.248 56.4333C122.305 56.5761 122.348 56.7047 122.419 56.8475L122.619 57.2475C122.748 57.519 122.877 57.7761 123.005 58.0475L123.877 59.6047C124.205 60.1047 124.519 60.619 124.834 61.1333C124.434 60.6904 124.048 60.219 123.648 59.7475C123.305 59.2475 122.948 58.7618 122.619 58.2475C122.005 57.2047 121.434 56.1047 121.091 54.9333C120.734 53.7618 120.505 52.5333 120.534 51.3047C120.562 50.6904 120.619 50.0761 120.762 49.4761C120.905 48.9047 121.105 48.319 121.419 47.8047Z" fill="#1F4068"/>
<path d="M131.461 61.7728C132.104 60.9871 132.704 60.1728 133.275 59.3442C133.832 58.5156 134.332 57.6442 134.775 56.7585L135.09 56.0871C135.19 55.8585 135.261 55.6299 135.361 55.4013C135.404 55.2871 135.461 55.1728 135.504 55.0585L135.618 54.7013L135.732 54.3442C135.775 54.2299 135.818 54.1013 135.832 53.9871C136.09 53.0299 136.189 52.0299 136.218 51.0156C136.404 52.0156 136.432 53.0585 136.247 54.0871C136.061 55.1013 135.732 56.1013 135.289 57.0299C134.832 57.9585 134.275 58.8299 133.632 59.6299C132.99 60.4013 132.275 61.1442 131.461 61.7728Z" fill="#1F4068"/>
<path d="M129 61.5683C128.785 61.0683 128.657 60.554 128.557 60.0254C128.471 59.4969 128.414 58.9683 128.414 58.4254C128.414 57.8826 128.471 57.354 128.571 56.8254C128.671 56.2969 128.843 55.7826 129.086 55.2969C129.071 55.8397 129.028 56.354 129.014 56.8683C129 57.3826 128.985 57.8969 128.985 58.4254L129 59.9826C129.014 60.5112 129.014 61.0397 129 61.5683Z" fill="#1F4068"/>
<path d="M133.633 60.4897C134.59 59.3468 135.676 58.3325 136.804 57.3754C137.947 56.4182 139.161 55.5468 140.447 54.7897C141.733 54.0468 143.104 53.3897 144.547 52.9897C145.99 52.5754 147.533 52.4182 148.99 52.6897C147.504 52.6468 146.061 52.9182 144.676 53.4039C143.99 53.6468 143.304 53.9182 142.661 54.2468C142.004 54.5611 141.361 54.9039 140.733 55.2754C139.461 56.0039 138.261 56.8468 137.076 57.7182C135.904 58.5897 134.747 59.5182 133.633 60.4897Z" fill="#1F4068"/>
<path d="M141.273 58.2911C142.445 57.6911 143.759 57.4197 145.073 57.3197C146.388 57.2197 147.716 57.3197 149.016 57.5626C150.316 57.8197 151.588 58.2197 152.773 58.7911C153.959 59.3626 155.073 60.0911 156.016 61.0054C154.931 60.2768 153.788 59.6768 152.588 59.1911C151.402 58.7197 150.159 58.3483 148.902 58.1197C147.645 57.8768 146.359 57.7626 145.073 57.7626C143.816 57.7626 142.531 57.9054 141.273 58.2911Z" fill="#1F4068"/>
<path d="M157.989 72.6058C157.46 71.9058 156.903 71.2344 156.318 70.6058C155.732 69.9772 155.132 69.3629 154.475 68.7915C153.832 68.2201 153.161 67.6772 152.461 67.1772C151.761 66.6629 151.018 66.2201 150.289 65.7344C151.132 66.0058 151.946 66.3487 152.703 66.8058C153.089 67.0201 153.446 67.2772 153.818 67.5344C154.003 67.6629 154.16 67.8058 154.346 67.9487C154.518 68.0915 154.689 68.2201 154.86 68.3772C155.518 68.9629 156.132 69.6201 156.661 70.3344C157.189 71.0201 157.66 71.7772 157.989 72.6058Z" fill="#1F4068"/>
<path d="M105.488 54.9759C106.117 54.5473 106.845 54.2473 107.588 54.0473C107.774 54.0045 107.96 53.9473 108.145 53.9045L108.717 53.8045C109.103 53.7616 109.488 53.7188 109.874 53.7188C110.074 53.7188 110.26 53.7187 110.46 53.733C110.66 53.7473 110.845 53.7616 111.045 53.7759C111.431 53.8473 111.817 53.8902 112.174 54.0187C112.917 54.2045 113.631 54.5473 114.26 54.9616C113.517 54.7616 112.803 54.5473 112.074 54.4473C111.345 54.3187 110.617 54.2616 109.874 54.2759C109.145 54.2759 108.403 54.333 107.674 54.4616C106.945 54.5902 106.217 54.7473 105.488 54.9759Z" fill="#1F4068"/>
<path d="M122.559 63.3289C121.445 62.8003 120.302 62.3432 119.159 61.9432C118.587 61.7432 118.002 61.5575 117.416 61.4146C116.83 61.2575 116.245 61.1289 115.645 61.0575C115.045 60.9718 114.445 60.9289 113.859 60.9432C113.259 60.9432 112.673 61.0432 112.102 61.2003C111.53 61.3718 110.987 61.6003 110.487 61.9432C109.987 62.2861 109.559 62.7003 109.145 63.1718C109.445 62.6289 109.845 62.1432 110.316 61.7146C110.802 61.3003 111.373 60.9861 111.973 60.7718C113.187 60.3289 114.487 60.3289 115.73 60.4861C116.973 60.6718 118.187 61.0289 119.33 61.5146C120.459 62.0289 121.559 62.6146 122.559 63.3289Z" fill="#1F4068"/>
<path d="M123.446 64.5323C122.446 64.4323 121.46 64.3751 120.46 64.3609C119.46 64.3323 118.475 64.3466 117.489 64.3894C116.503 64.4466 115.518 64.518 114.532 64.6608C113.546 64.7894 112.575 64.9608 111.618 65.2037C110.66 65.4323 109.718 65.718 108.803 66.0751C107.889 66.4323 107.003 66.8609 106.146 67.3609C105.303 67.8609 104.503 68.4466 103.76 69.1037C103.018 69.7608 102.375 70.518 101.746 71.3037C102.26 70.4466 102.875 69.6466 103.56 68.918C104.275 68.2037 105.046 67.5609 105.903 67.0037C106.76 66.4609 107.66 66.0037 108.589 65.6037C109.532 65.2323 110.489 64.9323 111.475 64.6751C113.446 64.2037 115.46 63.9894 117.46 63.9751C119.489 63.9323 121.489 64.1037 123.446 64.5323Z" fill="#1F4068"/>
<path d="M98.9297 68.3665C99.344 67.7808 99.8725 67.2808 100.444 66.8379C101.015 66.3951 101.644 66.0236 102.301 65.7236C102.63 65.5665 102.973 65.4522 103.315 65.3379C103.673 65.2522 104.015 65.1236 104.373 65.0808C105.087 64.9379 105.815 64.9236 106.53 64.9951C105.83 65.1522 105.144 65.2808 104.473 65.5094C103.801 65.7094 103.158 65.9522 102.53 66.2379C101.901 66.5094 101.287 66.8379 100.687 67.1951C100.087 67.5665 99.5011 67.9522 98.9297 68.3665Z" fill="#1F4068"/>
<path d="M146.688 70.4531C147.388 70.7103 148.045 71.0388 148.688 71.3817C149.33 71.7388 149.945 72.1246 150.559 72.5388C151.159 72.9531 151.759 73.396 152.316 73.8674C152.888 74.3388 153.416 74.8388 153.916 75.3817C153.273 75.0246 152.659 74.6246 152.059 74.2246C151.445 73.8246 150.845 73.4246 150.245 73.0103C149.645 72.596 149.045 72.196 148.459 71.7674C147.859 71.3388 147.273 70.9103 146.688 70.4531Z" fill="#1F4068"/>
<path d="M100.59 75.8908C100.676 75.3908 100.947 74.9337 101.233 74.5194C101.533 74.1051 101.89 73.748 102.276 73.4194C102.661 73.0908 103.076 72.8194 103.518 72.5623C103.733 72.4337 103.961 72.3337 104.19 72.2337C104.418 72.148 104.661 72.048 104.904 71.9766C104.718 72.148 104.533 72.3051 104.333 72.4623C104.147 72.6194 103.947 72.7766 103.761 72.9194C103.39 73.2337 103.004 73.5194 102.647 73.8337C102.276 74.148 101.918 74.4623 101.576 74.7909C101.218 75.148 100.89 75.4908 100.59 75.8908Z" fill="#1F4068"/>
<path d="M103.516 80.9761C103.816 80.319 104.173 79.6904 104.544 79.0618C104.916 78.4333 105.301 77.8333 105.701 77.2333C106.116 76.6333 106.53 76.0475 106.958 75.4761C107.401 74.9047 107.844 74.3333 108.344 73.8047C108.03 74.4761 107.687 75.1047 107.316 75.719C106.944 76.3475 106.558 76.9475 106.158 77.5475C105.744 78.1475 105.344 78.7333 104.901 79.3047C104.473 79.8761 104.016 80.4333 103.516 80.9761Z" fill="#1F4068"/>
<path d="M129.003 112.48C131.331 112.48 133.218 111.016 133.218 109.209C133.218 107.402 131.331 105.938 129.003 105.938C126.676 105.938 124.789 107.402 124.789 109.209C124.789 111.016 126.676 112.48 129.003 112.48Z" fill="#FA996E"/>
<path d="M132.331 111.219C132.003 111.704 131.517 112.076 130.974 112.333C130.431 112.59 129.846 112.733 129.246 112.747C128.646 112.776 128.046 112.69 127.488 112.476C126.931 112.276 126.403 111.947 126.031 111.504C126.56 111.762 127.074 111.933 127.617 112.047C128.146 112.162 128.688 112.19 129.231 112.176C130.303 112.147 131.36 111.847 132.331 111.219Z" fill="#E3405A"/>
<path d="M79.9721 201.714C79.5864 200.686 79.2721 199.629 79.0578 198.543C79.0007 198.271 78.9436 198 78.915 197.729C78.8721 197.457 78.8436 197.171 78.8007 196.914C78.7578 196.657 78.6864 196.386 78.6007 196.143C78.5579 196.014 78.5007 195.9 78.4579 195.771L78.2864 195.386C77.8579 194.371 77.4864 193.329 77.1864 192.271C76.9007 191.214 76.7007 190.114 76.7293 189C76.7721 189.543 76.8579 190.086 76.9721 190.614C77.0864 191.143 77.2293 191.671 77.4007 192.2C77.7293 193.243 78.115 194.271 78.5436 195.271L78.7007 195.643C78.7578 195.771 78.815 195.9 78.8579 196.043C78.9436 196.314 79.015 196.586 79.0578 196.857C79.0864 197 79.1007 197.143 79.115 197.271C79.1293 197.4 79.1436 197.543 79.1578 197.671C79.2007 197.943 79.2293 198.214 79.2721 198.486C79.3578 199.029 79.4721 199.557 79.5864 200.1C79.7007 200.657 79.8293 201.186 79.9721 201.714Z" fill="#FA996E"/>
<g opacity="0.4">
<path d="M189.562 162.388C189.404 162.545 179.376 172.488 178.79 201.988H174.519C174.862 190.702 172.219 174.931 172.219 174.931C172.219 174.931 173.019 176.959 173.547 178.002C178.062 186.945 176.89 178.788 176.504 176.974C173.833 164.374 173.962 154.559 173.962 154.559C175.704 162.559 180.19 164.845 180.19 164.845C172.004 153.159 177.49 141.031 177.804 140.359C177.59 140.874 174.633 148.302 177.533 156.931C179.819 163.731 183.562 163.574 183.562 163.574C182.847 162.374 182.519 161.388 182.519 161.388C186.204 163.274 189.476 162.417 189.562 162.388Z" fill="#A65B3C"/>
</g>
<g opacity="0.4">
<path d="M123.062 161.4C123.062 161.4 127.72 157.957 137.977 158.2L138.234 154.728L139.334 154.571V151.242C139.334 151.242 144.534 151.6 149.663 156.857L151.362 154.242C151.362 154.242 147.42 151.071 139.334 150.328V154.571C139.334 154.571 129.963 155.085 123.062 161.4Z" fill="#A65B3C"/>
</g>
<g opacity="0.4">
<path d="M109.434 151.095C109.434 151.095 109.648 147.166 107.205 145.881C102.92 143.609 97.8625 145.881 97.8625 145.881C96.7053 133.438 101.162 124.509 102.262 122.523C94.9339 135.323 97.1625 147.009 97.1625 147.009C103.634 146.209 107.777 151.809 107.777 151.809C117.834 153.823 122.12 161.409 122.12 161.409C117.262 152.652 109.434 151.095 109.434 151.095Z" fill="#A65B3C"/>
</g>
<g opacity="0.4">
<path d="M102.262 122.539C102.347 122.396 102.419 122.268 102.505 122.125C102.505 122.125 102.419 122.268 102.262 122.539Z" fill="#A65B3C"/>
</g>
<g opacity="0.4">
<path d="M122.119 162.531C122.119 162.531 122.804 171.274 121.633 183.003L122.119 162.531Z" fill="#A65B3C"/>
</g>
<g opacity="0.4">
<path d="M171.473 157.616C171.473 157.616 170.416 146.159 178.973 136.016C178.973 136.001 169.087 140.373 171.473 157.616Z" fill="#A65B3C"/>
</g>
<g opacity="0.4">
<path d="M127.674 201.989C127.674 201.989 147.303 182.075 154.903 155.203C154.903 155.203 146.103 183.86 122.031 201.989H127.674Z" fill="#A65B3C"/>
</g>
<g opacity="0.4">
<path d="M145.492 201.996C145.492 201.996 150.863 190.31 154.906 173.781C154.906 173.781 148.263 191.681 140.32 201.996H145.492Z" fill="#A65B3C"/>
</g>
<g opacity="0.4">
<path d="M87.5625 183L92.9339 202H88.7911C89.3768 193.229 87.5625 183 87.5625 183Z" fill="#A65B3C"/>
</g>
<g opacity="0.4">
<path d="M158.188 137.778C158.188 137.778 159.273 124.335 169.545 122.021C169.545 122.021 158.63 120.121 158.188 137.778Z" fill="#A65B3C"/>
</g>
<g opacity="0.4">
<path d="M55.7188 174.281C55.7188 174.281 57.5473 183.438 68.5045 183.61C68.5045 183.596 61.7616 184.167 55.7188 174.281Z" fill="#A65B3C"/>
</g>
<g opacity="0.4">
<path d="M65.2461 178.234C65.2461 178.234 71.4461 185.277 74.3175 193.977C74.3175 193.977 68.9461 183.334 65.2461 178.234Z" fill="#A65B3C"/>
</g>
<g opacity="0.4">
<path d="M60.4302 167.047C60.4302 167.047 60.1302 171.79 64.6587 177.69C64.6587 177.69 59.2016 173.775 60.4302 167.047Z" fill="#A65B3C"/>
</g>
<path d="M127.672 201.989C128.458 201.175 129.215 200.317 129.972 199.475C130.729 198.617 131.443 197.746 132.172 196.875C132.529 196.432 132.886 196.003 133.243 195.546C133.6 195.103 133.943 194.66 134.3 194.203C135 193.303 135.686 192.403 136.358 191.489C137.043 190.575 137.715 189.66 138.358 188.732C138.686 188.275 139.015 187.803 139.329 187.332C139.658 186.86 139.972 186.389 140.272 185.917C141.529 184.017 142.7 182.075 143.815 180.089C146.058 176.132 148.072 172.06 149.929 167.903C151.758 163.746 153.415 159.517 154.886 155.203L154.915 155.217C153.615 159.575 152.029 163.86 150.2 168.032C149.272 170.117 148.3 172.175 147.258 174.189C146.743 175.203 146.186 176.203 145.658 177.203C145.1 178.189 144.543 179.189 143.958 180.16C143.386 181.146 142.772 182.103 142.186 183.089C141.586 184.046 140.972 185.017 140.358 185.975L139.9 186.689L139.429 187.403C139.115 187.875 138.815 188.36 138.486 188.832C137.858 189.775 137.2 190.717 136.543 191.632C136.2 192.089 135.872 192.56 135.529 193.003C135.186 193.46 134.843 193.917 134.486 194.36C134.129 194.803 133.786 195.26 133.415 195.689C133.058 196.132 132.686 196.575 132.329 197.003C130.858 198.732 129.329 200.446 127.686 202.003L127.672 201.989Z" fill="#A65B3C"/>
<path d="M145.488 201.994C145.974 200.851 146.431 199.694 146.874 198.537C147.331 197.38 147.774 196.223 148.188 195.051C149.045 192.723 149.874 190.38 150.645 188.023C151.431 185.666 152.174 183.308 152.874 180.923C153.588 178.551 154.245 176.151 154.903 173.766C154.76 174.366 154.631 174.98 154.488 175.58C154.345 176.18 154.203 176.794 154.045 177.394C153.731 178.594 153.431 179.794 153.088 180.994C152.917 181.594 152.76 182.194 152.574 182.78L152.031 184.566C151.86 185.166 151.66 185.751 151.474 186.337C151.288 186.923 151.103 187.523 150.903 188.108L150.303 189.866L149.688 191.623C149.488 192.208 149.26 192.794 149.045 193.38C148.931 193.666 148.831 193.966 148.717 194.251L148.374 195.123C148.145 195.708 147.917 196.28 147.688 196.851C147.46 197.423 147.217 197.994 146.988 198.58C146.517 199.737 146.031 200.88 145.488 201.994Z" fill="#A65B3C"/>
<path d="M92.9339 201.986C92.3625 200.443 91.8339 198.886 91.3339 197.314C90.8339 195.743 90.3625 194.171 89.9054 192.586C89.4482 191 89.0339 189.414 88.6339 187.814C88.2339 186.214 87.8768 184.614 87.5625 183C87.7911 183.786 87.9768 184.586 88.2054 185.386L88.8482 187.771C89.2911 189.357 89.7196 190.943 90.1768 192.529C90.6196 194.114 91.0911 195.686 91.5482 197.271L92.9339 201.986Z" fill="#A65B3C"/>
<path d="M180.175 164.858C178.832 163.172 177.832 161.244 177.061 159.229C176.29 157.215 175.804 155.087 175.604 152.944C175.547 152.401 175.532 151.872 175.504 151.329C175.504 151.058 175.504 150.787 175.504 150.515C175.504 150.387 175.504 150.244 175.504 150.115L175.518 149.715C175.561 148.644 175.675 147.558 175.875 146.501C175.975 145.972 176.075 145.444 176.218 144.915C176.29 144.658 176.347 144.387 176.418 144.129L176.647 143.358L176.761 142.972L176.904 142.587L177.175 141.829C177.361 141.329 177.59 140.829 177.79 140.344L177.518 141.101L177.375 141.472C177.332 141.601 177.275 141.729 177.247 141.858L177.004 142.629L176.89 143.015L176.79 143.401L176.575 144.172C176.504 144.429 176.461 144.701 176.39 144.958C176.261 145.472 176.19 146.001 176.09 146.529C176.061 146.658 176.047 146.787 176.032 146.929L175.99 147.329C175.961 147.601 175.918 147.858 175.89 148.129L175.818 148.929C175.79 149.201 175.79 149.458 175.775 149.729L175.761 150.129C175.761 150.258 175.761 150.401 175.761 150.529C175.761 150.801 175.761 151.058 175.775 151.329C175.804 151.858 175.818 152.401 175.875 152.929C175.975 153.987 176.132 155.044 176.361 156.087C176.59 157.129 176.904 158.158 177.247 159.158C177.604 160.158 178.018 161.158 178.504 162.101C179.004 163.058 179.547 163.987 180.175 164.858Z" fill="#A65B3C"/>
<path d="M176.433 176.477C176.219 175.577 176.019 174.677 175.819 173.777C175.633 172.877 175.462 171.977 175.291 171.063C174.962 169.248 174.691 167.42 174.462 165.605C174.248 163.777 174.076 161.934 173.976 160.105C173.962 159.648 173.933 159.191 173.919 158.72C173.905 158.262 173.891 157.805 173.891 157.334L173.905 155.948C173.919 155.491 173.933 155.034 173.948 154.562C173.962 155.02 173.976 155.477 173.976 155.948L174.033 157.32L174.105 158.691C174.133 159.148 174.162 159.605 174.205 160.063C174.348 161.891 174.519 163.72 174.748 165.548C174.962 167.377 175.233 169.191 175.505 171.005C175.648 171.92 175.791 172.82 175.948 173.734C176.119 174.677 176.276 175.577 176.433 176.477Z" fill="#A65B3C"/>
<path d="M171.474 157.614C171.331 155.671 171.474 153.7 171.746 151.771C171.874 150.8 172.074 149.843 172.289 148.886C172.517 147.929 172.774 146.986 173.089 146.057C173.403 145.129 173.76 144.214 174.16 143.329L174.474 142.657C174.574 142.429 174.689 142.214 174.803 142C174.917 141.786 175.017 141.557 175.146 141.343L175.503 140.7C175.617 140.486 175.76 140.286 175.889 140.071C176.017 139.871 176.146 139.657 176.274 139.457C176.546 139.057 176.817 138.643 177.117 138.257C177.689 137.471 178.331 136.729 178.989 136C178.374 136.757 177.774 137.514 177.231 138.329C176.946 138.729 176.689 139.143 176.431 139.543C176.303 139.743 176.189 139.957 176.06 140.171C175.946 140.386 175.817 140.586 175.703 140.8C175.231 141.657 174.803 142.529 174.417 143.414C174.031 144.3 173.689 145.214 173.374 146.129C172.76 147.971 172.289 149.857 171.974 151.771C171.817 152.729 171.689 153.7 171.617 154.671C171.503 155.657 171.46 156.629 171.474 157.614Z" fill="#A65B3C"/>
<path d="M158.188 137.773C158.245 136.901 158.387 136.044 158.545 135.201C158.716 134.344 158.93 133.501 159.187 132.673C159.702 131.016 160.388 129.401 161.302 127.916C161.759 127.173 162.273 126.473 162.859 125.801C163.445 125.144 164.087 124.558 164.787 124.03C165.487 123.501 166.259 123.087 167.059 122.73L167.673 122.487C167.873 122.416 168.088 122.358 168.302 122.301L168.616 122.216C168.716 122.187 168.83 122.173 168.93 122.144L169.573 122.016C168.73 122.23 167.902 122.487 167.13 122.858L166.987 122.93L166.845 123.001L166.559 123.158L166.273 123.316C166.173 123.358 166.087 123.43 166.002 123.487C165.816 123.601 165.645 123.716 165.459 123.83L164.945 124.216C164.273 124.744 163.645 125.344 163.088 125.987C162.53 126.644 162.03 127.33 161.573 128.073C161.116 128.801 160.73 129.573 160.373 130.344C160.016 131.13 159.702 131.93 159.43 132.744C159.159 133.558 158.916 134.387 158.716 135.23C158.473 136.073 158.302 136.916 158.188 137.773Z" fill="#A65B3C"/>
<path d="M168.203 127.159C168.989 126.317 169.932 125.645 170.932 125.074C171.932 124.517 173.017 124.074 174.117 123.759C175.232 123.445 176.375 123.245 177.517 123.174C178.66 123.102 179.817 123.145 180.946 123.317C179.803 123.259 178.66 123.288 177.532 123.402C177.389 123.417 177.246 123.431 177.103 123.445L176.675 123.502C176.389 123.545 176.117 123.588 175.832 123.645C175.275 123.745 174.717 123.888 174.175 124.031C173.632 124.174 173.089 124.374 172.56 124.574C172.032 124.774 171.517 125.017 171.003 125.274C170.503 125.531 170.003 125.817 169.532 126.131C169.089 126.445 168.617 126.788 168.203 127.159Z" fill="#A65B3C"/>
<path d="M182.805 131.077C183.59 129.977 184.59 129.048 185.676 128.262C186.776 127.477 187.976 126.82 189.233 126.348C189.862 126.105 190.519 125.905 191.176 125.762C191.505 125.677 191.833 125.62 192.176 125.562C192.505 125.505 192.848 125.462 193.176 125.42C194.519 125.277 195.876 125.305 197.205 125.477C195.862 125.405 194.519 125.462 193.205 125.634C193.033 125.648 192.876 125.677 192.705 125.705C192.548 125.734 192.376 125.762 192.219 125.791C191.89 125.862 191.562 125.92 191.248 126.005C190.919 126.077 190.605 126.177 190.29 126.277C189.976 126.377 189.662 126.477 189.348 126.605C188.719 126.834 188.119 127.105 187.519 127.42C186.933 127.72 186.362 128.062 185.805 128.448C185.248 128.82 184.719 129.234 184.219 129.662C183.719 130.091 183.233 130.562 182.805 131.077Z" fill="#A65B3C"/>
<path d="M152.531 155.201C152.874 153.758 153.174 152.315 153.431 150.858C153.703 149.401 153.917 147.944 154.103 146.472C154.474 143.544 154.731 140.587 154.746 137.629C154.76 137.258 154.746 136.887 154.746 136.515C154.746 136.144 154.746 135.772 154.731 135.401L154.703 134.287L154.646 133.187C154.546 131.715 154.389 130.244 154.16 128.787L154.117 128.515L154.06 128.244L153.96 127.701L153.86 127.158C153.817 126.972 153.774 126.801 153.731 126.615C153.646 126.258 153.574 125.901 153.474 125.544L153.174 124.472C152.746 123.058 152.217 121.672 151.574 120.344C152.274 121.658 152.831 123.029 153.303 124.444L153.631 125.515C153.731 125.872 153.817 126.229 153.903 126.587C153.946 126.772 154.003 126.944 154.031 127.129L154.146 127.672L154.26 128.215L154.317 128.487L154.36 128.758C154.874 131.687 155.046 134.658 155.017 137.629C155.003 139.115 154.917 140.601 154.803 142.072C154.674 143.544 154.531 145.029 154.303 146.487C153.903 149.429 153.331 152.344 152.531 155.201Z" fill="#A65B3C"/>
<path d="M139.334 154.576C139.306 153.862 139.292 153.162 139.277 152.447L139.249 151.39L139.234 150.333V150.219H139.349C139.949 150.262 140.549 150.319 141.134 150.404C141.72 150.49 142.32 150.59 142.906 150.704C144.077 150.933 145.234 151.247 146.377 151.619C146.949 151.819 147.506 152.033 148.049 152.262C148.592 152.504 149.134 152.762 149.663 153.062C150.177 153.362 150.692 153.676 151.177 154.033C151.663 154.39 152.12 154.776 152.534 155.204C152.077 154.819 151.606 154.462 151.106 154.133C150.606 153.819 150.092 153.519 149.563 153.247C148.506 152.704 147.406 152.262 146.277 151.904C145.149 151.533 144.006 151.233 142.834 150.99C141.677 150.747 140.492 150.562 139.32 150.447L139.434 150.347L139.42 151.404L139.392 152.462C139.377 153.162 139.363 153.876 139.334 154.576Z" fill="#A65B3C"/>
<path d="M123.062 161.407C124.134 160.35 125.32 159.421 126.591 158.621C127.863 157.821 129.205 157.135 130.605 156.578C132.005 156.021 133.448 155.592 134.905 155.264C136.363 154.935 137.848 154.707 139.348 154.578C137.877 154.821 136.405 155.121 134.963 155.478C133.52 155.85 132.091 156.292 130.72 156.85C129.334 157.392 127.991 158.05 126.72 158.807C125.42 159.578 124.205 160.435 123.062 161.407Z" fill="#A65B3C"/>
<path d="M107.203 145.875C107.66 146.075 108.017 146.446 108.332 146.832C108.632 147.232 108.86 147.675 109.046 148.146C109.217 148.618 109.346 149.104 109.417 149.589C109.503 150.075 109.546 150.575 109.56 151.075L109.46 150.961C110.16 151.118 110.817 151.346 111.489 151.604C112.146 151.861 112.789 152.161 113.417 152.489C114.66 153.146 115.846 153.932 116.932 154.832C118.032 155.718 119.003 156.746 119.889 157.846C120.317 158.404 120.746 158.961 121.103 159.561C121.303 159.846 121.46 160.161 121.646 160.461C121.817 160.761 121.975 161.075 122.146 161.389C121.96 161.089 121.789 160.789 121.603 160.489C121.417 160.204 121.232 159.904 121.017 159.618L120.717 159.189L120.403 158.775C120.203 158.489 119.975 158.232 119.746 157.961C119.289 157.432 118.832 156.904 118.317 156.432C118.189 156.304 118.075 156.189 117.946 156.075L117.56 155.718C117.303 155.489 117.032 155.261 116.76 155.046C115.689 154.161 114.503 153.404 113.275 152.746C112.66 152.418 112.032 152.118 111.389 151.861C110.746 151.604 110.075 151.375 109.417 151.218L109.317 151.189V151.089C109.303 150.604 109.289 150.118 109.217 149.632C109.146 149.146 109.046 148.675 108.889 148.204C108.732 147.746 108.532 147.289 108.26 146.889C108.117 146.689 107.975 146.504 107.789 146.318C107.617 146.161 107.432 145.989 107.203 145.875Z" fill="#A65B3C"/>
<path d="M97.8906 145.876C98.2335 145.676 98.6192 145.533 98.9906 145.376C99.3763 145.248 99.7621 145.133 100.148 145.048C100.933 144.876 101.748 144.776 102.548 144.79C103.348 144.805 104.162 144.876 104.948 145.076C105.348 145.148 105.719 145.29 106.105 145.405C106.291 145.462 106.476 145.548 106.662 145.633C106.848 145.705 107.033 145.79 107.205 145.876C107.005 145.819 106.819 145.762 106.633 145.705C106.448 145.648 106.262 145.576 106.062 145.548C105.676 145.462 105.291 145.348 104.905 145.29L104.619 145.233C104.519 145.219 104.419 145.19 104.333 145.19L103.748 145.133C103.548 145.105 103.348 145.105 103.162 145.09C102.962 145.076 102.762 145.062 102.576 145.076C102.376 145.076 102.176 145.076 101.991 145.076L101.405 145.119C101.005 145.148 100.619 145.205 100.233 145.262C99.4049 145.405 98.6335 145.59 97.8906 145.876Z" fill="#A65B3C"/>
<path d="M121.633 183.004C121.704 182.147 121.761 181.304 121.819 180.447C121.876 179.59 121.933 178.747 121.99 177.89C122.09 176.19 122.176 174.475 122.233 172.775C122.261 171.918 122.29 171.075 122.29 170.218C122.319 169.361 122.304 168.518 122.304 167.661C122.29 165.961 122.233 164.247 122.119 162.547C122.347 164.247 122.476 165.947 122.533 167.661C122.59 169.375 122.561 171.09 122.519 172.79C122.461 174.504 122.361 176.204 122.204 177.918C122.061 179.604 121.876 181.304 121.633 183.004Z" fill="#A65B3C"/>
<path d="M74.3188 193.977C74.0616 193.263 73.7759 192.549 73.4759 191.849L73.0187 190.806L72.5473 189.763C71.9045 188.377 71.2045 187.034 70.4473 185.706C70.0759 185.034 69.6759 184.392 69.2759 183.749C69.0759 183.42 68.8616 183.106 68.6616 182.792L68.3473 182.32L68.0187 181.849L67.3616 180.92L66.6616 180.02C66.5473 179.863 66.433 179.72 66.3188 179.563L65.9473 179.12C65.7045 178.834 65.4616 178.534 65.2188 178.234C65.4759 178.506 65.7473 178.792 66.0045 179.063L66.3902 179.477C66.5188 179.62 66.633 179.763 66.7616 179.92L67.4902 180.806C67.7187 181.106 67.9473 181.42 68.1759 181.72L68.5187 182.177L68.8473 182.649C69.0616 182.963 69.2759 183.277 69.4902 183.606C69.8902 184.263 70.3045 184.906 70.6759 185.577C71.433 186.906 72.1187 188.277 72.7187 189.677C73.3616 191.077 73.9045 192.52 74.3188 193.977Z" fill="#A65B3C"/>
<path d="M64.6612 177.69C64.004 176.961 63.4326 176.175 62.9183 175.347C62.404 174.518 61.9469 173.647 61.5612 172.747C61.1755 171.847 60.8898 170.904 60.6755 169.961C60.4612 169.004 60.4041 168.018 60.4326 167.047C60.4612 167.29 60.4898 167.533 60.5041 167.775C60.5183 167.89 60.5183 168.018 60.5469 168.133L60.6041 168.49C60.6469 168.733 60.6755 168.961 60.7326 169.204L60.9041 169.904L60.9469 170.075L61.0041 170.247L61.1041 170.59C61.1755 170.818 61.2326 171.047 61.3183 171.275L61.5612 171.961L61.8326 172.633C62.2041 173.518 62.6469 174.39 63.1183 175.233C63.3612 175.647 63.6041 176.075 63.8612 176.475C64.1041 176.89 64.3755 177.29 64.6612 177.69Z" fill="#A65B3C"/>
<path d="M68.5058 183.594C67.0772 183.694 65.6201 183.523 64.2201 183.166C62.8201 182.808 61.4772 182.223 60.2772 181.394C59.6772 180.98 59.1201 180.508 58.6201 179.994C58.1201 179.466 57.6772 178.894 57.2915 178.28C56.5344 177.051 56.0201 175.68 55.7344 174.266C56.1344 175.637 56.7058 176.966 57.4772 178.151C57.8772 178.737 58.3201 179.294 58.8201 179.794C59.3201 180.294 59.8629 180.751 60.4487 181.151C61.0344 181.566 61.6487 181.894 62.2915 182.194C62.9344 182.494 63.6058 182.737 64.2915 182.937C64.9772 183.137 65.6772 183.294 66.3772 183.394C67.0772 183.523 67.7915 183.594 68.5058 183.594Z" fill="#A65B3C"/>
<path d="M65.0013 176.325C64.3013 172.91 63.9298 169.425 63.7441 165.939C63.5727 162.453 63.6298 158.953 63.9298 155.467C63.9727 155.039 64.0013 154.596 64.0584 154.167L64.2156 152.867C64.2727 152.439 64.3441 151.996 64.4013 151.567C64.4298 151.353 64.4584 151.139 64.5013 150.925L64.6156 150.282L64.7298 149.639C64.7727 149.425 64.8013 149.21 64.8584 148.996L65.1156 147.71C65.2013 147.282 65.3155 146.853 65.4155 146.439L65.5727 145.796L65.7441 145.167C66.187 143.482 66.7584 141.825 67.387 140.196L67.887 138.982C68.0584 138.582 68.2441 138.182 68.4298 137.796L68.7013 137.196C68.8013 136.996 68.9013 136.81 69.0013 136.61L69.6013 135.453C68.0441 138.567 66.8156 141.853 65.9584 145.225L65.787 145.853L65.6441 146.496C65.5441 146.925 65.4441 147.339 65.3584 147.767L65.1013 149.053C65.0584 149.267 65.0155 149.482 64.987 149.696L64.8727 150.339L64.7584 150.982C64.7156 151.196 64.7013 151.41 64.6584 151.625C64.6013 152.053 64.5298 152.482 64.4727 152.91L64.3298 154.21C64.2727 154.639 64.2441 155.082 64.2013 155.51C63.8727 158.982 63.8298 162.467 63.9441 165.939C64.0013 167.682 64.1298 169.425 64.3013 171.153C64.487 172.882 64.7013 174.61 65.0013 176.325Z" fill="#A65B3C"/>
<path d="M102.501 122.125C102.015 123.025 101.587 123.954 101.187 124.896C100.787 125.839 100.43 126.796 100.101 127.768C99.7869 128.739 99.4726 129.711 99.2155 130.696C98.944 131.682 98.7297 132.682 98.544 133.682C98.144 135.682 97.9155 137.711 97.7869 139.754C97.744 140.768 97.7012 141.796 97.7297 142.825C97.7297 143.339 97.7583 143.854 97.7726 144.354C97.7726 144.611 97.8012 144.868 97.8155 145.125L97.8583 145.896C97.7297 144.882 97.6297 143.854 97.5726 142.839C97.5155 141.811 97.5297 140.782 97.544 139.754C97.6155 137.696 97.8583 135.654 98.244 133.639C98.644 131.625 99.1726 129.639 99.8726 127.696C100.601 125.768 101.43 123.868 102.501 122.125Z" fill="#A65B3C"/>
<g opacity="0.8">
<path d="M127.176 166.829C127.845 166.16 127.845 165.074 127.176 164.405C126.506 163.736 125.421 163.736 124.751 164.405C124.082 165.074 124.082 166.16 124.751 166.829C125.421 167.499 126.506 167.499 127.176 166.829Z" fill="white"/>
</g>
<g opacity="0.8">
<path d="M127.651 175.935C127.803 175.001 127.168 174.12 126.234 173.968C125.299 173.817 124.418 174.451 124.267 175.386C124.115 176.321 124.75 177.201 125.684 177.353C126.619 177.504 127.499 176.87 127.651 175.935Z" fill="white"/>
</g>
<path d="M239.103 201.734H22.7031V202.163H239.103V201.734Z" fill="#1B1A2E"/>
<path d="M79.9725 201.719C79.9725 201.719 79.1725 199.262 78.9725 197.247C78.9154 196.733 78.7868 196.219 78.5868 195.733C77.9725 194.347 76.7583 191.319 76.7297 189.004C76.7011 185.933 70.2725 189.647 73.1297 196.99C73.1297 196.99 68.9297 194.133 64.7583 197.676C64.7583 197.676 62.1154 193.404 56.144 196.619C56.144 196.619 53.6868 192.919 49.044 195.747C49.044 195.747 41.4725 192.633 40.4297 201.704H44.2297L45.4154 203.076C45.4154 203.076 43.4297 208.847 48.144 210.833C48.144 210.833 47.744 215.076 49.2725 217.519C50.2868 219.133 52.7725 218.747 53.2725 216.904C53.2725 216.89 53.2868 216.862 53.2868 216.847C53.2868 216.847 54.0868 219.147 56.0297 218.804C57.6583 218.519 58.6868 216.376 58.6868 216.376C58.6868 216.376 61.9868 217.333 64.3297 213.433C66.6868 209.533 68.144 207.376 68.144 207.376L72.5583 201.704H79.9725V201.719Z" fill="#FFC89F"/>
<path d="M64.7719 197.688C65.0862 198.473 65.1147 199.345 65.0147 200.173C65.0004 200.273 64.9862 200.388 64.9576 200.488L64.9004 200.802C64.8433 201.002 64.7862 201.216 64.729 201.416C64.6576 201.616 64.5862 201.816 64.5004 202.002C64.4147 202.188 64.329 202.388 64.229 202.573C64.129 202.759 64.0147 202.93 63.9004 203.116L63.5433 203.63C63.3004 203.973 63.0719 204.302 62.8719 204.673C62.4719 205.402 62.1719 206.173 61.9004 206.959C61.6433 207.745 61.4004 208.545 61.1719 209.345L60.5004 211.745C60.2719 212.545 60.029 213.345 59.7576 214.13C59.629 214.53 59.4719 214.916 59.3147 215.302C59.229 215.502 59.1433 215.688 59.0433 215.873C58.9433 216.059 58.829 216.245 58.7004 216.402L58.6719 216.388C58.8862 216.03 59.029 215.645 59.1719 215.259C59.3147 214.873 59.4147 214.473 59.529 214.073L60.1862 211.673C60.4147 210.873 60.6433 210.073 60.9004 209.273C61.1433 208.473 61.429 207.688 61.7433 206.916C61.9004 206.53 62.0719 206.145 62.229 205.759C62.4004 205.373 62.5862 205.002 62.7719 204.63C62.9576 204.259 63.1719 203.902 63.4004 203.545L63.7147 203.016C63.8147 202.83 63.9004 202.645 64.0004 202.473C64.3576 201.73 64.6576 200.959 64.7862 200.159C64.8576 199.759 64.8862 199.345 64.9004 198.93C64.9004 198.516 64.8576 198.102 64.7433 197.702L64.7719 197.688Z" fill="#FA996E"/>
<path d="M56.1448 196.633C56.302 196.79 56.4162 196.976 56.5305 197.176C56.5877 197.276 56.6305 197.376 56.6734 197.476L56.7877 197.79C56.9305 198.219 57.002 198.647 57.0448 199.104C57.102 199.99 56.9591 200.89 56.7019 201.733C56.6305 201.947 56.5734 202.147 56.4877 202.361L56.2305 202.976C56.0591 203.376 55.8734 203.776 55.7162 204.176C55.3877 204.99 55.1162 205.819 54.8591 206.647C54.6162 207.49 54.3877 208.333 54.1734 209.176C53.9734 210.019 53.7734 210.876 53.6305 211.733C53.4734 212.59 53.3448 213.447 53.2734 214.319C53.202 215.19 53.1734 216.061 53.2448 216.933H53.2162C53.0448 216.076 53.0162 215.19 53.0448 214.304C53.0734 213.419 53.1877 212.547 53.3305 211.676C53.4734 210.804 53.6877 209.961 53.9162 209.104C54.1448 208.261 54.4162 207.419 54.7162 206.59L55.1734 205.361L55.402 204.747L55.6305 204.133C55.7734 203.719 55.9448 203.319 56.0877 202.904L56.3019 202.29C56.3734 202.09 56.4162 201.876 56.4734 201.661C56.6877 200.819 56.8305 199.976 56.8162 199.104C56.802 198.676 56.7448 198.247 56.6305 197.833C56.5162 197.419 56.3591 197.004 56.102 196.661L56.1448 196.633Z" fill="#FA996E"/>
<path d="M48.1445 210.851C48.2302 210.88 48.316 210.908 48.4017 210.923C48.4874 210.951 48.5731 210.966 48.6588 210.98C48.8302 210.994 48.9874 210.937 49.116 210.837C49.2445 210.737 49.3302 210.594 49.3588 210.437C49.3731 210.366 49.3731 210.266 49.3731 210.18L49.3874 209.908C49.4445 209.194 49.516 208.48 49.6302 207.78C49.7588 207.08 49.916 206.38 50.0731 205.68C50.1445 205.337 50.2302 204.98 50.316 204.637C50.3588 204.466 50.416 204.294 50.4588 204.123C50.516 203.951 50.5588 203.78 50.616 203.608C50.6731 203.437 50.7445 203.266 50.8017 203.108C50.8588 202.937 50.9017 202.78 50.9302 202.608C50.9588 202.437 50.9874 202.266 50.9874 202.094C50.9874 201.923 51.0017 201.737 51.0017 201.566C51.0017 201.208 51.0017 200.866 50.9731 200.508C50.9445 200.151 50.916 199.808 50.8588 199.466C50.7588 198.766 50.5874 198.094 50.3017 197.451C50.016 196.823 49.6017 196.237 49.0445 195.794L49.0588 195.766C49.6731 196.137 50.1588 196.708 50.5017 197.351C50.8445 197.994 51.0445 198.708 51.1588 199.423C51.2731 200.137 51.3017 200.866 51.2588 201.58C51.2588 201.766 51.2445 201.937 51.2302 202.123C51.216 202.308 51.1874 202.494 51.1445 202.666C51.1017 202.837 51.0445 203.023 50.9731 203.194C50.9017 203.366 50.8302 203.523 50.7588 203.68C50.4874 204.337 50.3017 205.023 50.1588 205.723C50.016 206.423 49.9445 207.123 49.8588 207.837L49.6017 209.951L49.5731 210.223C49.5588 210.308 49.5588 210.394 49.5302 210.494C49.4874 210.694 49.3588 210.866 49.2017 210.98C49.0445 211.094 48.8302 211.137 48.6445 211.094C48.5445 211.08 48.4588 211.037 48.3874 211.008C48.3017 210.98 48.216 210.937 48.1445 210.894V210.851Z" fill="#FA996E"/>
<path d="M72.7741 196.805C73.2312 196.962 73.6598 197.305 73.917 197.748C74.0455 197.976 74.1312 198.219 74.1598 198.476C74.1884 198.733 74.1741 198.99 74.1312 199.248C74.0741 199.505 73.9884 199.733 73.8884 199.962C73.7741 200.19 73.6598 200.405 73.517 200.605C73.2312 201.019 72.9027 201.376 72.5312 201.705C72.817 201.305 73.0884 200.905 73.317 200.49C73.5455 200.076 73.7455 199.633 73.8312 199.176C73.917 198.719 73.8884 198.248 73.7027 197.833C73.5312 197.433 73.1884 197.076 72.7741 196.805Z" fill="#FA996E"/>
<path d="M44.2326 201.724C44.1326 201.581 44.0612 201.424 44.004 201.267C43.9469 201.11 43.9183 200.938 43.904 200.767C43.8898 200.596 43.904 200.424 43.9326 200.253C43.9612 200.081 44.0183 199.924 44.1183 199.781C44.1469 199.953 44.1469 200.11 44.1612 200.267L44.204 200.738C44.204 201.081 44.2326 201.381 44.2326 201.724Z" fill="#FA996E"/>
<path d="M56.1312 196.644C55.6884 196.144 55.1741 195.73 54.6027 195.43C54.0313 195.13 53.417 194.93 52.7741 194.872C52.1313 194.815 51.4884 194.887 50.8598 195.058C50.2313 195.23 49.617 195.487 49.0312 195.772C49.5598 195.372 50.1598 195.058 50.8027 194.844C51.117 194.73 51.4598 194.658 51.7884 194.615C52.1313 194.572 52.4741 194.572 52.8027 194.587C53.4884 194.644 54.1455 194.872 54.717 195.23C55.3027 195.587 55.7884 196.072 56.1312 196.644Z" fill="#FA996E"/>
<path d="M64.7575 197.71C64.2575 197.081 63.6289 196.595 62.9289 196.224C62.2289 195.867 61.4718 195.653 60.7003 195.61C59.9289 195.553 59.1432 195.653 58.3718 195.853C57.6146 196.038 56.8575 196.324 56.1289 196.653C56.8003 196.224 57.5289 195.867 58.3003 195.638C58.5003 195.581 58.6861 195.524 58.8861 195.481C59.0861 195.438 59.286 195.41 59.486 195.367C59.886 195.324 60.3003 195.295 60.7003 195.324C61.1003 195.353 61.5146 195.424 61.9003 195.538C62.2861 195.653 62.6718 195.824 63.0146 196.024C63.7432 196.438 64.3432 197.01 64.7575 197.71Z" fill="#FA996E"/>
<path d="M73.1279 197.013C72.4565 196.67 71.7565 196.413 71.0279 196.256C70.2993 196.099 69.5708 196.027 68.8279 196.084C68.0993 196.141 67.3708 196.313 66.685 196.599C65.9993 196.884 65.3565 197.27 64.7422 197.699C65.2708 197.17 65.8993 196.727 66.585 196.384C67.2708 196.056 68.0279 195.856 68.7993 195.799C69.5708 195.741 70.3422 195.827 71.0708 196.041C71.8136 196.241 72.5136 196.556 73.1279 197.013Z" fill="#FA996E"/>
<path d="M72.5555 191.82C72.5269 192.263 72.4984 192.706 72.5126 193.135C72.5269 193.577 72.5555 194.006 72.6126 194.435C72.6698 194.863 72.7412 195.292 72.8269 195.72C72.9126 196.149 73.0269 196.577 73.1269 197.006C72.9126 196.62 72.7412 196.206 72.6126 195.777C72.4698 195.349 72.3841 194.906 72.3269 194.463C72.2698 194.02 72.2555 193.563 72.2984 193.12C72.3126 192.677 72.3984 192.235 72.5555 191.82Z" fill="#FA996E"/>
<path d="M191.905 130.189C191.905 130.189 179.962 136.347 178.533 148.918C177.105 161.489 189.576 162.404 189.576 162.404C189.576 162.404 214.219 168.018 227.19 156.261C227.19 156.261 243.976 146.189 229.805 130.975C229.805 130.975 206.19 99.0466 181.147 80.1465C181.147 80.1465 170.919 68.4465 158.062 69.8465L139.747 68.3608L137.09 69.2323L128.005 68.8608C128.005 68.8608 122.376 69.4894 117.419 68.2037C116.69 68.018 116.033 68.6751 116.219 69.4037C116.305 69.7465 116.462 70.0894 116.719 70.3608C116.719 70.3608 112.576 70.518 109.705 69.9894C108.876 69.8323 108.147 70.5751 108.333 71.3894C108.39 71.6323 108.476 71.8894 108.59 72.1751L105.433 72.1323C104.476 72.118 103.847 73.1037 104.247 73.9751C104.619 74.7894 105.419 75.6037 107.105 75.8608C107.105 75.8608 107.09 78.4323 114.219 77.518L122.105 77.8751L130.233 77.7894C130.233 77.7894 135.362 80.118 141.562 80.0037L150.162 83.1751C150.162 83.1751 154.876 88.4894 162.105 85.9894C162.105 85.9894 167.947 91.7894 176.547 104.061C184.719 115.804 191.905 130.189 191.905 130.189Z" fill="#FFC89F"/>
<path d="M130.202 77.7812C131.845 78.3384 133.502 78.7813 135.173 79.1955C135.588 79.2955 136.016 79.3955 136.43 79.4813C136.845 79.5813 137.273 79.6527 137.702 79.7241C137.916 79.7527 138.13 79.7813 138.345 79.8098C138.559 79.8384 138.773 79.867 138.987 79.867C139.416 79.9098 139.845 79.9241 140.287 79.9384C141.145 79.9813 142.03 80.0384 142.873 80.2527C143.302 80.367 143.716 80.4955 144.116 80.667C144.516 80.8241 144.916 80.9813 145.33 81.1384C146.93 81.7813 148.53 82.4527 150.102 83.167L150.088 83.1955C148.445 82.6384 146.83 82.0384 145.216 81.4241C144.816 81.267 144.416 81.1098 144.016 80.9527C143.616 80.7813 143.216 80.6384 142.802 80.5241C141.988 80.2955 141.13 80.1955 140.273 80.1098C138.545 79.9241 136.83 79.7527 135.116 79.4384C134.259 79.267 133.43 79.0384 132.602 78.767C131.773 78.4955 130.959 78.1955 130.188 77.8241L130.202 77.7812Z" fill="#FA996E"/>
<path d="M107.089 75.8594C107.103 76.0165 107.174 76.1737 107.26 76.3022L107.331 76.4022L107.417 76.4879L107.488 76.5737C107.517 76.6022 107.546 76.6308 107.574 76.6451C107.689 76.7594 107.831 76.8308 107.96 76.9165C108.031 76.9594 108.103 76.9879 108.174 77.0308C108.246 77.0594 108.317 77.1022 108.389 77.1308C108.989 77.3737 109.631 77.4594 110.274 77.5165C110.603 77.5451 110.917 77.5594 111.246 77.5594C111.574 77.5594 111.889 77.5737 112.217 77.5451C112.546 77.5308 112.874 77.5308 113.189 77.5022L114.16 77.4308H114.174C114.846 77.4879 115.503 77.5165 116.174 77.5451L117.174 77.5879L118.174 77.6165C119.503 77.6308 120.846 77.6879 122.174 77.7308C123.503 77.7022 124.846 77.6879 126.174 77.7022C127.503 77.7022 128.846 77.7308 130.174 77.7737V77.8022C128.846 77.8737 127.503 77.9165 126.174 77.9594C124.846 78.0022 123.503 78.0165 122.174 78.0165C120.846 77.9594 119.503 77.8737 118.174 77.7737L117.174 77.7022L116.174 77.6451C115.503 77.6022 114.846 77.5879 114.174 77.5737H114.189C113.531 77.6594 112.889 77.7594 112.231 77.8022C112.06 77.8165 111.903 77.8308 111.731 77.8308H111.231C110.903 77.8451 110.574 77.8022 110.246 77.7737C109.589 77.7022 108.917 77.5879 108.317 77.3022C108.246 77.2737 108.174 77.2308 108.089 77.1879C108.017 77.1451 107.931 77.1165 107.874 77.0594L107.674 76.9165C107.603 76.8737 107.546 76.8022 107.488 76.7451C107.46 76.7165 107.431 76.6879 107.403 76.6594L107.331 76.5594L107.26 76.4594L107.203 76.3451C107.117 76.2022 107.074 76.0308 107.074 75.8594H107.089Z" fill="#FA996E"/>
<path d="M108.561 72.1779C107.775 72.2208 107.004 72.2493 106.218 72.2636H105.632C105.532 72.2636 105.432 72.2636 105.347 72.2636C105.261 72.2636 105.175 72.2779 105.09 72.3065C104.747 72.3922 104.461 72.6493 104.332 72.9636C104.261 73.1208 104.218 73.2922 104.232 73.4636C104.232 73.635 104.29 73.8065 104.361 73.9636C104.518 74.3065 104.747 74.6065 105.018 74.8636C105.575 75.3779 106.304 75.6779 107.061 75.8493C106.675 75.8208 106.29 75.7493 105.904 75.6208C105.532 75.4922 105.175 75.3065 104.861 75.035C104.547 74.7779 104.29 74.4493 104.104 74.0922C104.004 73.9065 103.947 73.6922 103.932 73.4779C103.918 73.2636 103.961 73.0493 104.047 72.8493C104.218 72.4493 104.575 72.1493 105.004 72.035C105.104 72.0208 105.218 71.9922 105.318 71.9922C105.432 71.9922 105.518 71.9922 105.618 71.9922L106.204 72.0065C107.018 72.0636 107.79 72.1065 108.561 72.1779Z" fill="#FA996E"/>
<path d="M116.689 70.3608C115.846 70.4466 114.989 70.4751 114.146 70.4751C113.289 70.4751 112.446 70.4466 111.589 70.3751C111.16 70.3323 110.746 70.2894 110.317 70.218C110.103 70.1894 109.903 70.1465 109.689 70.1037C109.489 70.0608 109.303 70.0608 109.117 70.118C108.746 70.2323 108.446 70.5466 108.36 70.9466C108.317 71.1466 108.346 71.3466 108.389 71.5466C108.431 71.7466 108.503 71.9608 108.56 72.1608C108.46 71.9751 108.374 71.7751 108.303 71.5751C108.231 71.3751 108.174 71.1466 108.203 70.9323C108.26 70.4751 108.589 70.0751 109.031 69.918C109.246 69.8323 109.503 69.8323 109.717 69.8608C109.931 69.8894 110.131 69.9323 110.346 69.9466C110.76 70.0037 111.189 70.0466 111.603 70.0751C112.446 70.1466 113.289 70.2037 114.131 70.2465L115.403 70.3037C115.831 70.3323 116.26 70.3466 116.689 70.3608Z" fill="#FA996E"/>
<path d="M143.274 68.6727C142.96 68.6584 142.631 68.6441 142.317 68.6298C142.003 68.6155 141.674 68.6012 141.36 68.5727C140.717 68.5298 140.088 68.5584 139.46 68.6584C139.145 68.7155 138.845 68.7869 138.545 68.8727C138.245 68.9727 137.931 69.0727 137.617 69.1441C136.974 69.287 136.317 69.3298 135.674 69.287C134.388 69.2155 133.117 69.1155 131.831 69.0584C131.188 69.0298 130.545 69.0155 129.903 68.9869L127.974 68.9441H127.988C126.845 69.0869 125.688 69.1298 124.531 69.1441C123.374 69.1441 122.217 69.1012 121.074 68.9869C119.931 68.8727 118.788 68.6584 117.674 68.3727L117.46 68.3155L117.36 68.287L117.26 68.2727C117.131 68.2584 117.003 68.2584 116.874 68.287C116.617 68.3584 116.403 68.5441 116.288 68.787C116.231 68.9012 116.203 69.0441 116.203 69.1727C116.203 69.3012 116.245 69.4441 116.288 69.5727C116.374 69.8441 116.503 70.1012 116.688 70.3155L116.674 70.3298C116.474 70.1298 116.317 69.8727 116.217 69.6012C116.16 69.4727 116.117 69.3298 116.103 69.1727C116.088 69.0155 116.103 68.8584 116.174 68.7155C116.288 68.4298 116.531 68.2012 116.831 68.1012C116.974 68.0584 117.145 68.0298 117.303 68.0584L117.417 68.0727L117.517 68.1012L117.731 68.1441C118.845 68.4012 119.974 68.5584 121.117 68.6727C122.26 68.7727 123.403 68.8441 124.545 68.8584C125.688 68.8584 126.831 68.8298 127.974 68.7441H127.988L129.903 68.8584C130.545 68.887 131.188 68.9298 131.831 68.9584C133.117 69.0155 134.403 69.0155 135.674 69.0441C136.303 69.0584 136.931 69.0155 137.56 68.8727C137.874 68.8155 138.16 68.7155 138.474 68.6298C138.788 68.5441 139.103 68.4727 139.431 68.4155C140.074 68.3155 140.731 68.3155 141.374 68.3869C141.688 68.4155 142.017 68.4584 142.331 68.4869C142.645 68.5298 142.974 68.5584 143.288 68.6012L143.274 68.6727Z" fill="#FA996E"/>
<path d="M116.833 70.5C116.962 70.7286 117.148 70.9286 117.333 71.1C117.519 71.2857 117.733 71.4429 117.933 71.6C118.362 71.9143 118.819 72.1714 119.29 72.4C119.762 72.6286 120.262 72.8286 120.748 73C121.248 73.1714 121.748 73.3429 122.262 73.4857C123.29 73.7714 124.348 73.9286 125.405 74C126.462 74.0714 127.533 74.1 128.59 74.1H128.605H128.619C129.19 74.2 129.776 74.3 130.348 74.3857C130.919 74.4857 131.505 74.5714 132.076 74.6571C132.662 74.7429 133.233 74.8286 133.819 74.9C134.405 74.9714 134.976 75.0286 135.562 75.0714V75.1C134.976 75.1286 134.39 75.1143 133.805 75.0857C133.219 75.0571 132.633 75 132.048 74.9286C131.462 74.8571 130.876 74.7857 130.305 74.6857C129.719 74.6 129.148 74.4857 128.576 74.3714H128.605C127.533 74.3429 126.462 74.2714 125.405 74.1286C124.348 73.9857 123.29 73.8286 122.248 73.6143C121.205 73.4 120.162 73.1143 119.19 72.6143C118.705 72.3714 118.248 72.0857 117.833 71.7429C117.633 71.5714 117.433 71.3857 117.248 71.1714C117.076 70.9714 116.905 70.7429 116.805 70.5H116.833Z" fill="#FA996E"/>
<path d="M150.346 82.5469C149.203 81.8326 148.06 81.1469 146.917 80.4469C146.346 80.0897 145.774 79.7469 145.188 79.4326C144.588 79.1183 143.988 78.8469 143.346 78.6326C142.717 78.4183 142.074 78.2469 141.417 78.104C141.088 78.0326 140.76 77.9754 140.431 77.9326C140.088 77.8754 139.76 77.804 139.431 77.7183C138.774 77.5183 138.146 77.2612 137.56 76.904C136.974 76.5469 136.46 76.0897 136.031 75.5612L136.046 75.5469C137.017 76.4754 138.231 77.0754 139.503 77.4326C139.817 77.5183 140.146 77.5897 140.474 77.6469C140.803 77.704 141.146 77.7754 141.46 77.8612C142.117 78.0183 142.76 78.2326 143.388 78.504C143.703 78.6326 144.003 78.7754 144.303 78.9326L145.203 79.3754L146.117 79.8183C146.417 79.9754 146.717 80.1183 147.017 80.2754C147.603 80.5897 148.174 80.9612 148.731 81.3326C149.288 81.7183 149.831 82.1183 150.346 82.5469V82.5469Z" fill="#FA996E"/>
<path d="M108.633 72.2969C108.804 72.6397 109.061 72.954 109.347 73.2254C109.633 73.4969 109.947 73.7254 110.276 73.9254C110.947 74.3254 111.69 74.5683 112.461 74.7397C113.219 74.8969 114.004 74.9969 114.79 75.0254C115.576 75.054 116.376 75.0112 117.147 74.8969C117.719 74.9397 118.29 74.9969 118.876 75.0254L120.604 75.1397C121.176 75.1826 121.761 75.2254 122.333 75.2683L124.061 75.4112H124.076H124.09C124.361 75.4683 124.633 75.5254 124.904 75.5826C125.176 75.6397 125.447 75.6826 125.733 75.7397C126.29 75.8397 126.833 75.9254 127.39 75.9969C127.947 76.0683 128.504 76.1397 129.061 76.1969C129.619 76.254 130.176 76.2826 130.733 76.3112V76.3397C130.176 76.3683 129.604 76.3826 129.047 76.354C128.49 76.3397 127.919 76.2969 127.361 76.2397C126.804 76.1826 126.247 76.1112 125.69 76.0254C125.133 75.9397 124.576 75.8397 124.033 75.7112H124.047L122.319 75.5397C121.747 75.4826 121.176 75.4254 120.604 75.3683L118.89 75.1683C118.319 75.0969 117.747 75.0397 117.176 74.9826H117.19C116.404 75.0826 115.619 75.154 114.819 75.1826C114.019 75.2112 113.219 75.154 112.433 74.9826C112.047 74.8969 111.661 74.7826 111.276 74.6397C110.904 74.4826 110.533 74.3112 110.204 74.0969C109.861 73.8826 109.561 73.6112 109.276 73.3254C109.004 73.0254 108.776 72.6969 108.633 72.3112V72.2969Z" fill="#FA996E"/>
<path d="M107.359 75.8475L110.531 75.819C111.059 75.8047 111.588 75.8047 112.117 75.8047C112.645 75.8047 113.174 75.819 113.702 75.8047C114.402 75.8761 115.102 75.919 115.802 75.9333C116.502 75.9475 117.202 75.9475 117.902 75.9618C118.602 75.9618 119.302 75.9761 120.002 75.9618H122.102H122.117C122.659 76.0333 123.202 76.1047 123.745 76.2047C124.288 76.2904 124.831 76.3761 125.374 76.4761V76.5047C124.817 76.4761 124.274 76.4333 123.731 76.3904C123.188 76.3475 122.631 76.2904 122.088 76.2475H122.102C121.402 76.2761 120.702 76.2904 120.002 76.2761C119.302 76.2618 118.602 76.2475 117.902 76.2047C117.202 76.1761 116.502 76.119 115.802 76.0618C115.102 76.0047 114.402 75.9618 113.702 75.919H113.717C113.188 75.9618 112.659 76.0047 112.131 76.0333C111.602 76.0618 111.074 76.0761 110.545 76.0761C110.017 76.0761 109.488 76.0618 108.959 76.0333C108.431 76.0047 107.902 75.9618 107.374 75.8904L107.359 75.8475Z" fill="#FA996E"/>
<path d="M162.047 85.9759C162.233 85.6902 162.39 85.4045 162.518 85.1045C162.647 84.8045 162.747 84.4902 162.818 84.1759C162.833 84.0902 162.847 84.0188 162.861 83.933L162.89 83.8187C162.89 83.7759 162.904 83.733 162.904 83.7045C162.918 83.6187 162.933 83.5473 162.933 83.4616C162.933 83.3759 162.947 83.3045 162.947 83.2188L162.961 83.0902V82.9616L162.975 82.7188C162.975 82.5473 162.961 82.3902 162.975 82.2188C163.033 82.3759 163.075 82.5473 163.118 82.7045C163.147 82.8759 163.175 83.0473 163.175 83.2188C163.204 83.5616 163.161 83.9045 163.09 84.2473C163.004 84.5902 162.89 84.9188 162.718 85.2188C162.547 85.5045 162.318 85.7902 162.047 85.9759Z" fill="#FA996E"/>
<path d="M191.902 130.188C192.259 131.045 192.617 131.888 193.017 132.716C193.402 133.559 193.817 134.388 194.245 135.202C195.102 136.83 196.002 138.445 197.002 139.988C197.988 141.545 199.059 143.045 200.231 144.473C201.388 145.902 202.659 147.245 204.045 148.473C203.688 148.173 203.317 147.902 202.988 147.588C202.817 147.43 202.645 147.288 202.474 147.13L201.974 146.659C201.317 146.002 200.674 145.33 200.074 144.63C199.459 143.93 198.902 143.202 198.345 142.445C197.802 141.702 197.274 140.93 196.774 140.159C196.274 139.373 195.802 138.588 195.345 137.773C194.888 136.959 194.459 136.145 194.045 135.316C193.645 134.488 193.259 133.645 192.888 132.788C192.702 132.359 192.531 131.93 192.374 131.502C192.202 131.059 192.045 130.616 191.902 130.188Z" fill="#FA996E"/>
<path d="M46.4004 63.177C54.6004 55.3627 67.5862 55.677 75.4004 63.877C81.2861 70.0484 82.5576 78.9341 79.329 86.277L85.6004 93.1341L74.7004 92.8627C66.5004 100.677 53.5147 100.363 45.7004 92.1627C37.8862 83.9627 38.2004 70.9913 46.4004 63.177Z" fill="white"/>
<path d="M85.6035 93.154C85.1035 92.554 84.6035 91.9683 84.0892 91.3969C83.5749 90.8112 83.0606 90.2397 82.532 89.6683C82.0035 89.0969 81.4892 88.5254 80.9463 87.9683C80.4177 87.4112 79.8749 86.854 79.332 86.2969C79.832 86.8969 80.332 87.4826 80.8463 88.054C81.3606 88.6397 81.8749 89.2112 82.4035 89.7826C82.932 90.354 83.4463 90.9254 83.9892 91.4826C84.5035 92.0397 85.0463 92.5969 85.6035 93.154Z" fill="#1B1A2E"/>
<path d="M74.6875 92.8857C75.6018 92.9429 76.5018 92.9857 77.4161 93.0286C78.3304 93.0714 79.2304 93.0857 80.1446 93.1143C81.0589 93.1286 81.9589 93.1571 82.8732 93.1571C83.7875 93.1714 84.6875 93.1714 85.6018 93.1571C84.6875 93.1 83.7875 93.0571 82.8732 93.0143C81.9589 92.9714 81.0589 92.9571 80.1446 92.9286C79.2304 92.9143 78.3304 92.8857 77.4161 92.8857C76.5161 92.8714 75.6018 92.8714 74.6875 92.8857Z" fill="#1B1A2E"/>
<path d="M79.3313 86.2824C79.8313 85.1253 80.2456 83.9396 80.5313 82.711C80.8171 81.4824 81.0028 80.2396 81.0599 78.9681C81.1885 76.4538 80.8456 73.911 80.0599 71.511C79.2742 69.111 78.0313 66.8681 76.4313 64.911C74.8171 62.9681 72.8742 61.2967 70.6599 60.0538C69.5599 59.4253 68.4028 58.911 67.2028 58.4967C66.0028 58.0824 64.7742 57.7967 63.5171 57.611C61.0171 57.2396 58.4456 57.3396 55.9742 57.8967C53.5028 58.4396 51.1313 59.4681 49.0313 60.8824C47.9742 61.5824 46.9885 62.3967 46.0885 63.2824C45.1885 64.1681 44.3456 65.1253 43.6313 66.1681C42.1742 68.2396 41.1171 70.5824 40.5028 73.0396C39.8885 75.4967 39.7456 78.0681 40.0599 80.5824C40.3599 83.0967 41.1599 85.5538 42.3599 87.7824C43.5599 90.011 45.1742 92.011 47.0885 93.6681C49.0028 95.311 51.2313 96.5967 53.6171 97.4396C56.0028 98.2824 58.5313 98.6824 61.0599 98.611C63.5885 98.5396 66.0885 97.9967 68.4171 97.011C70.7456 96.0396 72.8742 94.6253 74.6885 92.8824C72.8599 94.611 70.7171 95.9967 68.3885 96.9396C66.0599 97.8967 63.5599 98.411 61.0599 98.4538C58.5456 98.511 56.0313 98.0967 53.6742 97.2538C51.3171 96.411 49.1171 95.1253 47.2313 93.4824C46.2885 92.6681 45.4171 91.7538 44.6313 90.7824C43.8456 89.811 43.1599 88.7538 42.5599 87.6538C41.3742 85.4538 40.6028 83.0253 40.3028 80.5396C40.0028 78.0538 40.1599 75.5253 40.7599 73.0967C41.3599 70.6681 42.4171 68.3538 43.8599 66.311C44.5742 65.2824 45.3885 64.3396 46.2885 63.4538C47.1885 62.5824 48.1599 61.7824 49.1885 61.0824C51.2599 59.6824 53.5885 58.6681 56.0313 58.1253C58.4742 57.5681 61.0171 57.4824 63.4885 57.8396C65.9599 58.1967 68.3742 59.011 70.5599 60.2253C72.7456 61.4396 74.6885 63.0967 76.3028 65.011C77.9028 66.9396 79.1456 69.1681 79.9456 71.5396C80.7456 73.911 81.1028 76.4396 81.0028 78.9538C80.9456 80.211 80.7742 81.4538 80.5028 82.6824C80.2171 83.9396 79.8313 85.1253 79.3313 86.2824Z" fill="#1B1A2E"/>
<path d="M70.6576 85.6509L66.9862 81.9795C66.7719 81.7652 66.4862 81.6652 66.2147 81.6795L63.529 78.9938C65.5576 76.4938 65.4004 72.7938 63.0719 70.4652C61.8719 69.2652 60.2576 68.5938 58.5576 68.5938C56.8576 68.5938 55.2433 69.2509 54.0433 70.4652C52.8433 71.6652 52.1719 73.2795 52.1719 74.9795C52.1719 76.6795 52.829 78.2938 54.0433 79.4938C55.2433 80.6938 56.8576 81.3652 58.5576 81.3652C60.029 81.3652 61.429 80.8652 62.5719 79.9509L65.2576 82.6366C65.2433 82.908 65.3433 83.1938 65.5576 83.408L69.229 87.0795C69.429 87.2795 69.6862 87.3795 69.9433 87.3795C70.2004 87.3795 70.4576 87.2795 70.6576 87.0795C71.0433 86.6938 71.0433 86.0509 70.6576 85.6509ZM55.0147 78.5652C54.0576 77.608 53.5433 76.3509 53.5433 75.008C53.5433 73.6652 54.0719 72.3937 55.0147 71.4509C55.9719 70.4937 57.229 69.9795 58.5719 69.9795C59.9147 69.9795 61.1862 70.508 62.129 71.4509C64.0862 73.408 64.0862 76.608 62.129 78.5652C61.1719 79.5223 59.9147 80.0366 58.5719 80.0366C57.229 80.0366 55.9576 79.508 55.0147 78.5652Z" fill="#1F4068"/>
</svg>
