<svg width="24" height="24" viewBox="0 0 24 24" fill="none" xmlns="http://www.w3.org/2000/svg">
<path d="M12 11.6923C11.0375 11.6923 10.2135 11.3496 9.52813 10.6642C8.84271 9.97876 8.5 9.15481 8.5 8.19233C8.5 7.22983 8.84271 6.40588 9.52813 5.72048C10.2135 5.03506 11.0375 4.69235 12 4.69235C12.9625 4.69235 13.7864 5.03506 14.4718 5.72048C15.1572 6.40588 15.5 7.22983 15.5 8.19233C15.5 9.15481 15.1572 9.97876 14.4718 10.6642C13.7864 11.3496 12.9625 11.6923 12 11.6923ZM17.9808 19.3077H6.0192C5.59742 19.3077 5.23877 19.1599 4.94327 18.8644C4.64776 18.5689 4.5 18.2102 4.5 17.7885V17.0846C4.5 16.5949 4.63302 16.1414 4.89905 15.7241C5.16507 15.3068 5.52051 14.9859 5.96537 14.7616C6.95384 14.2769 7.95096 13.9135 8.95672 13.6712C9.96249 13.4289 10.9769 13.3077 12 13.3077C13.023 13.3077 14.0375 13.4289 15.0432 13.6712C16.049 13.9135 17.0461 14.2769 18.0346 14.7616C18.4794 14.9859 18.8349 15.3068 19.1009 15.7241C19.3669 16.1414 19.5 16.5949 19.5 17.0846V17.7885C19.5 18.2102 19.3522 18.5689 19.0567 18.8644C18.7612 19.1599 18.4025 19.3077 17.9808 19.3077ZM5.99997 17.8077H18V17.0846C18 16.882 17.9413 16.6945 17.824 16.5221C17.7067 16.3497 17.5474 16.209 17.3461 16.1C16.4846 15.6756 15.6061 15.3542 14.7107 15.1356C13.8152 14.917 12.9117 14.8077 12 14.8077C11.0883 14.8077 10.1847 14.917 9.28927 15.1356C8.39384 15.3542 7.51536 15.6756 6.65382 16.1C6.45254 16.209 6.29325 16.3497 6.17595 16.5221C6.05863 16.6945 5.99997 16.882 5.99997 17.0846V17.8077ZM12 10.1923C12.55 10.1923 13.0208 9.99649 13.4125 9.60483C13.8041 9.21316 14 8.74233 14 8.19233C14 7.64233 13.8041 7.17149 13.4125 6.77983C13.0208 6.38816 12.55 6.19233 12 6.19233C11.45 6.19233 10.9791 6.38816 10.5875 6.77983C10.1958 7.17149 9.99997 7.64233 9.99997 8.19233C9.99997 8.74233 10.1958 9.21316 10.5875 9.60483C10.9791 9.99649 11.45 10.1923 12 10.1923Z" fill="#1DA1F2"/>
</svg>
